/* XPM */
static const char * cam1_xpm[] = {
"34 29 416 2",
"  	c None",
". 	c #574D57",
"+ 	c #5A4E5C",
"@ 	c #625247",
"# 	c #4A282E",
"$ 	c #463239",
"% 	c #48323B",
"& 	c #4D3829",
"* 	c #4F3223",
"= 	c #4E4455",
"- 	c #2F5496",
"; 	c #4A67A6",
"> 	c #5F7F9A",
", 	c #577A9F",
"' 	c #798492",
") 	c #6E7D8A",
"! 	c #5D6D8B",
"~ 	c #5B6580",
"{ 	c #276388",
"] 	c #2B678C",
"^ 	c #44648D",
"/ 	c #5079AB",
"( 	c #8A86A4",
"_ 	c #271E1A",
": 	c #473C3C",
"< 	c #4F608E",
"[ 	c #4C5B88",
"} 	c #556874",
"| 	c #506675",
"1 	c #696D71",
"2 	c #3C4245",
"3 	c #2F3B55",
"4 	c #333F59",
"5 	c #2C688D",
"6 	c #2F6B90",
"7 	c #41618A",
"8 	c #6F6A79",
"9 	c #6E6F7D",
"0 	c #17121B",
"a 	c #083A9C",
"b 	c #3766B8",
"c 	c #0067CA",
"d 	c #0063C6",
"e 	c #0B5EBC",
"f 	c #3864A5",
"g 	c #275394",
"h 	c #2257A3",
"i 	c #2F64B0",
"j 	c #0E64BB",
"k 	c #1369C0",
"l 	c #1F58C3",
"m 	c #1B54BF",
"n 	c #4559A4",
"o 	c #5678DA",
"p 	c #43383E",
"q 	c #3161B8",
"r 	c #4978CA",
"s 	c #2591F4",
"t 	c #238FF2",
"u 	c #287BD9",
"v 	c #1164C2",
"w 	c #2C5899",
"x 	c #2F5B9C",
"y 	c #3469B5",
"z 	c #3D72BE",
"A 	c #368CE3",
"B 	c #348AE1",
"C 	c #3B74DF",
"D 	c #265FCA",
"E 	c #3C529B",
"F 	c #5466B4",
"G 	c #7F6D7A",
"H 	c #4D3F3C",
"I 	c #1B7FF2",
"J 	c #3288F5",
"K 	c #00ADFF",
"L 	c #00AFFF",
"M 	c #0B97FF",
"N 	c #0081F2",
"O 	c #095EB1",
"P 	c #186DC0",
"Q 	c #2383E7",
"R 	c #3090F4",
"S 	c #00B9FB",
"T 	c #00B3F5",
"U 	c #009CFF",
"V 	c #0088F3",
"W 	c #0D63AE",
"X 	c #157CCE",
"Y 	c #89888C",
"Z 	c #4C383D",
"` 	c #2482F4",
" .	c #3C92FF",
"..	c #00AEFF",
"+.	c #119DFF",
"@.	c #0894FF",
"#.	c #0F64B7",
"$.	c #176CBF",
"%.	c #3999FD",
"&.	c #00C2FF",
"*.	c #00B8FA",
"=.	c #09A7FF",
"-.	c #0094FF",
";.	c #0A60AB",
">.	c #0B6ABB",
",.	c #848085",
"'.	c #35441E",
").	c #1981D9",
"!.	c #3B9AEA",
"~.	c #0FADF4",
"{.	c #12B0F7",
"].	c #2699F2",
"^.	c #0F82DB",
"/.	c #1D5FAB",
"(.	c #1F61AD",
"_.	c #337CDA",
":.	c #4E97F5",
"<.	c #14A6F1",
"[.	c #18AAF5",
"}.	c #1A90FC",
"|.	c #077DE9",
"1.	c #1D5EAE",
"2.	c #3176CE",
"3.	c #6C6365",
"4.	c #042A1A",
"5.	c #253B22",
"6.	c #1170C0",
"7.	c #2988D8",
"8.	c #0AA8EF",
"9.	c #03A1E8",
"0.	c #1285DE",
"a.	c #0477D0",
"b.	c #2062AE",
"c.	c #2466B2",
"d.	c #2972D0",
"e.	c #16A8F3",
"f.	c #13A5F0",
"g.	c #0F85F1",
"h.	c #0075E1",
"i.	c #1B5CAC",
"j.	c #2A76CD",
"k.	c #716C6A",
"l.	c #1D1B51",
"m.	c #372E4E",
"n.	c #2859B8",
"o.	c #3263C2",
"p.	c #2D79CF",
"q.	c #2470C6",
"r.	c #2461BE",
"s.	c #215EBB",
"t.	c #2D5EBB",
"u.	c #3263C0",
"v.	c #3165CA",
"w.	c #3064C9",
"x.	c #3963C9",
"y.	c #3A64CA",
"z.	c #275BC8",
"A.	c #2458C5",
"B.	c #3554AF",
"C.	c #4867C2",
"D.	c #766C8D",
"E.	c #756FA4",
"F.	c #351F13",
"G.	c #443759",
"H.	c #594B60",
"I.	c #3162C1",
"J.	c #2F60BF",
"K.	c #125EB4",
"L.	c #1C59B6",
"M.	c #1D5AB7",
"N.	c #2657B4",
"O.	c #2859B6",
"P.	c #265ABF",
"Q.	c #275BC0",
"R.	c #2B55BB",
"S.	c #305AC0",
"T.	c #2559C6",
"U.	c #3E5DB8",
"V.	c #6C688D",
"W.	c #756E95",
"X.	c #736C53",
"Y.	c #2F1B28",
"Z.	c #166BC2",
"`.	c #3276C1",
" +	c #0792EF",
".+	c #0590ED",
"++	c #069BF5",
"@+	c #0A9FF9",
"#+	c #00ADF0",
"$+	c #00ABEE",
"%+	c #00AEFB",
"&+	c #00ACF9",
"*+	c #00AAEF",
"=+	c #00ACF1",
"-+	c #00A0EF",
";+	c #00A4F3",
">+	c #0098DF",
",+	c #008CD3",
"'+	c #0769C2",
")+	c #0060B9",
"!+	c #5061A7",
"~+	c #5E6FB5",
"{+	c #786C86",
"]+	c #695A78",
"^+	c #304183",
"/+	c #26326C",
"(+	c #333D87",
"_+	c #3D232B",
":+	c #2E75C5",
"<+	c #4084CF",
"[+	c #18A3FF",
"}+	c #1DA8FF",
"|+	c #18ADFF",
"1+	c #17ACFF",
"2+	c #06B7FA",
"3+	c #07B8FB",
"4+	c #00BFFF",
"5+	c #00BAFF",
"6+	c #00B9FE",
"7+	c #0AAFFE",
"8+	c #11B6FF",
"9+	c #019FE6",
"0+	c #1375CE",
"a+	c #005AB3",
"b+	c #4B5CA2",
"c+	c #5768AE",
"d+	c #534A65",
"e+	c #493A50",
"f+	c #263160",
"g+	c #303863",
"h+	c #51568F",
"i+	c #6E76B8",
"j+	c #3C2920",
"k+	c #078BEC",
"l+	c #2397EE",
"m+	c #00BBFF",
"n+	c #00BCFF",
"o+	c #07AFFF",
"p+	c #05ADFF",
"q+	c #00B3EF",
"r+	c #00B5F1",
"s+	c #00B9FF",
"t+	c #1FABF6",
"u+	c #1CA8F3",
"v+	c #00A5FF",
"w+	c #08AEFF",
"x+	c #03B1FA",
"y+	c #00ACF5",
"z+	c #0D88F0",
"A+	c #0064CC",
"B+	c #3462C4",
"C+	c #3967C9",
"D+	c #1C3764",
"E+	c #314C79",
"F+	c #3560AE",
"G+	c #3A65B3",
"H+	c #3E61BB",
"I+	c #3D66CF",
"J+	c #717A65",
"K+	c #351E11",
"L+	c #0789EC",
"M+	c #289CF3",
"N+	c #00B1FF",
"O+	c #0BB3FF",
"P+	c #0AB2FF",
"Q+	c #01B9F5",
"R+	c #00B8FF",
"S+	c #0AB0FF",
"T+	c #0CB2FF",
"U+	c #00AEF7",
"V+	c #00A9F2",
"W+	c #0F8AF2",
"X+	c #3664C6",
"Y+	c #405B88",
"Z+	c #45608D",
"`+	c #3863B1",
" @	c #3762B0",
".@	c #4164BE",
"+@	c #496FD3",
"@@	c #72735F",
"#@	c #353154",
"$@	c #1B80C8",
"%@	c #3C9AE0",
"&@	c #0DB3FF",
"*@	c #09AFFF",
"=@	c #01B4FF",
"-@	c #00B9FD",
";@	c #00BBF4",
">@	c #1281B5",
",@	c #00B0DE",
"'@	c #00C2F3",
")@	c #02ADFB",
"!@	c #0088C7",
"~@	c #1361BF",
"{@	c #0047A9",
"]@	c #274896",
"^@	c #2B50AC",
"/@	c #3D6191",
"(@	c #436797",
"_@	c #3865C2",
":@	c #305DBA",
"<@	c #395BBF",
"[@	c #4B6EE1",
"}@	c #778B6B",
"|@	c #3A3756",
"1@	c #137DC8",
"2@	c #3290D6",
"3@	c #04AAFE",
"4@	c #05ABFF",
"5@	c #00B3FF",
"6@	c #00B8FC",
"7@	c #00AEE4",
"8@	c #00232E",
"9@	c #000000",
"0@	c #000C0F",
"a@	c #0094B8",
"b@	c #06B1FF",
"c@	c #002A3D",
"d@	c #0D1E35",
"e@	c #2B4F7F",
"f@	c #3663C0",
"g@	c #3C69C6",
"h@	c #4163C7",
"i@	c #4269DE",
"j@	c #678161",
"k@	c #493247",
"l@	c #2A7ABD",
"m@	c #4690CF",
"n@	c #1EACFE",
"o@	c #21AFFF",
"p@	c #00759F",
"q@	c #01425F",
"r@	c #037AAF",
"s@	c #032C3F",
"t@	c #18A4FC",
"u@	c #03263C",
"v@	c #02162F",
"w@	c #182439",
"x@	c #142825",
"y@	c #253961",
"z@	c #3C5272",
"A@	c #585A9D",
"B@	c #656AB7",
"C@	c #31203B",
"D@	c #136BB0",
"E@	c #3D87C6",
"F@	c #16A4F6",
"G@	c #13A1F3",
"H@	c #00B6FF",
"I@	c #0096CE",
"J@	c #0299DE",
"K@	c #01618D",
"L@	c #033F5E",
"M@	c #119DF5",
"N@	c #012339",
"O@	c #032B5C",
"P@	c #3C5C97",
"Q@	c #0A101B",
"R@	c #0C1816",
"S@	c #001150",
"T@	c #052451",
"U@	c #353C90",
"V@	c #183665",
"W@	c #4A6087",
"X@	c #3879B9",
"Y@	c #3576B6",
"Z@	c #2D77C0",
"`@	c #237BC3",
" #	c #1D7DC9",
".#	c #19477C",
"+#	c #02060C",
"@#	c #1E67B9",
"##	c #2872B1",
"$#	c #091A28",
"%#	c #1A2A45",
"&#	c #616576",
"*#	c #14151A",
"=#	c #1B1C0E",
"-#	c #002A6A",
";#	c #234275",
">#	c #1461AB",
",#	c #1C63A9",
"'#	c #1469BB",
")#	c #1668B9",
"!#	c #086EBE",
"~#	c #0A6DBD",
"{#	c #0570C5",
"]#	c #033F6E",
"^#	c #03101F",
"/#	c #115AAC",
"(#	c #1270DD",
"_#	c #1666A8",
":#	c #041624",
"<#	c #0F2746",
"[#	c #4B5364",
"}#	c #050608",
"|#	c #1D2016",
"1#	c #33221C",
"2#	c #38281F",
"3#	c #401F17",
"4#	c #3F2019",
"5#	c #451F11",
"6#	c #441F12",
"7#	c #30130D",
"8#	c #1B0805",
"9#	c #0D0B12",
"0#	c #161019",
"a#	c #302315",
"b#	c #0B0A07",
"c#	c #060507",
"d#	c #080709",
"e#	c #010101",
"f#	c #080506",
"g#	c #030408",
"h#	c #030405",
"i#	c #020203",
"                                . + @                               ",
"                              # $ % & *                             ",
"              = - ; > , ' ) ! ~ { ] ^ / (                           ",
"            _ : < [ } | 1 2 3 4 5 6 7 ^ 8 9                         ",
"          0 a b c d e e f g h i j k l m n o                         ",
"          p q r s t u v w x y z A B C D E F G                       ",
"          H I J K L M N O P Q R S T U V W X Y                       ",
"          Z `  ...L +.@.#.$.Q %.&.*.=.-.;.>.,.                      ",
"          '.).!.~.{.].^./.(._.:.<.[.}.|.1.2.3.                      ",
"        4.5.6.7.8.9.0.a.b.c.d._.e.f.g.h.i.j.k.                      ",
"        l.m.n.o.p.q.r.s.t.u.v.w.x.y.z.A.B.C.D.E.                    ",
"      F.G.H.I.J.K.K.L.M.N.O.P.Q.R.S.A.T.B.U.V.W.X.                  ",
"      Y.Z.`. +.+++@+#+$+%+&+*+=+-+;+>+,+'+)+!+~+{+]+^+/+(+          ",
"      _+:+<+[+}+|+1+2+3+4+4+5+6+7+8+~.9+0+a+b+c+d+e+f+g+h+i+        ",
"      j+k+l+m+n+o+p+q+r+s+m+t+u+v+w+x+y+z+A+B+C+D+E+F+G+H+I+J+      ",
"      K+L+M+5+N+O+P+Q+Q+R+R+u+u+S+T+U+V+W+A+B+X+Y+Z+`+ @.@+@@@      ",
"      #@$@%@&@*@=@=@-@-@;@;@>@>@,@'@)@!@~@{@]@^@/@(@_@:@<@[@}@      ",
"      |@1@2@3@4@5@5@6@6@7@8@9@9@0@a@b@c@9@9@9@9@d@e@f@g@h@i@j@      ",
"      k@l@m@n@o@S+S+R+R+p@9@q@r@9@s@t@u@9@v@w@9@9@x@y@z@A@B@        ",
"      C@D@E@F@G@w+w+H@H@5+I@J@K@9@L@M@N@9@O@P@Q@9@R@S@T@U@          ",
"        V@W@X@Y@Z@Z@`@`@ # #.#9@+#@###$#9@%#&#*#9@=#                ",
"        -#;#>#,#'#)#!#~#{#]#9@^#/#(#_#:#9@<#[#}#9@|#                ",
"            1#2#3#4#5#6#7#9@9@8#9#0#a#b#9@c#d#9@e#                  ",
"                        f#9@9@9@9@g#  h#9@9@9@i#                    ",
"                                                                    ",
"                                                                    ",
"                                                                    ",
"                                                                    ",
"                                                                    "};

