/* XPM */
static const char * cam2_xpm[] = {
"34 28 585 2",
"  	c None",
". 	c #1C70AE",
"+ 	c #1981CA",
"@ 	c #036BB4",
"# 	c #0A3987",
"$ 	c #103F8D",
"% 	c #E2F1E2",
"& 	c #F2F9F2",
"* 	c #FAFBFA",
"= 	c #FCFCFC",
"- 	c #FBFBFB",
"; 	c #F5F5F6",
"> 	c #EBEBEA",
", 	c #CDC9CA",
"' 	c #254264",
") 	c #3286C4",
"! 	c #5EB2F0",
"~ 	c #53BBFF",
"{ 	c #3BA3EC",
"] 	c #3F6EBC",
"^ 	c #204F9D",
"/ 	c #2C4470",
"( 	c #3D5581",
"_ 	c #DAF3DC",
": 	c #F4FAF4",
"< 	c #FDFDFD",
"[ 	c #FEFEFE",
"} 	c #FBFBFA",
"| 	c #F4F5F4",
"1 	c #EAE8E5",
"2 	c #D2CFC9",
"3 	c #90A3AF",
"4 	c #718FA2",
"5 	c #259EE5",
"6 	c #3CB5FC",
"7 	c #21AFED",
"8 	c #1DABE9",
"9 	c #349ADC",
"0 	c #056BAD",
"a 	c #244ED8",
"b 	c #1A44CE",
"c 	c #E2F5E4",
"d 	c #FDFEFD",
"e 	c #FFFFFE",
"f 	c #FAFDFA",
"g 	c #F8FCF9",
"h 	c #F5F9F6",
"i 	c #F2F7F3",
"j 	c #EAEFEA",
"k 	c #DCDED6",
"l 	c #C2C2B7",
"m 	c #7F94A1",
"n 	c #85A1B4",
"o 	c #50B8F4",
"p 	c #3EB7FE",
"q 	c #1EACEA",
"r 	c #29B7F5",
"s 	c #3DA3E5",
"t 	c #1D83C5",
"u 	c #345EE8",
"v 	c #153FC9",
"w 	c #313453",
"x 	c #FEFFFE",
"y 	c #FAFEFA",
"z 	c #F7FDF8",
"A 	c #F5FBF5",
"B 	c #F2FAF2",
"C 	c #F0F8F0",
"D 	c #ECF5EC",
"E 	c #E5F0E4",
"F 	c #DBE7D8",
"G 	c #CAD3C6",
"H 	c #AAB3A6",
"I 	c #667F8E",
"J 	c #6C8FA6",
"K 	c #5CB0E1",
"L 	c #56B1E8",
"M 	c #34AAC8",
"N 	c #3AB0CE",
"O 	c #3BA6D0",
"P 	c #1F8AB4",
"Q 	c #2760F8",
"R 	c #0942DA",
"S 	c #152F79",
"T 	c #455FA9",
"U 	c #DDF4E0",
"V 	c #FBFDFB",
"W 	c #F9FDFA",
"X 	c #F5FCF6",
"Y 	c #F2FBF3",
"Z 	c #EEFAF0",
"` 	c #EAF7EC",
" .	c #E8F5E9",
"..	c #E4F3E4",
"+.	c #DEEFDF",
"@.	c #D5E6D4",
"#.	c #CAD9C6",
"$.	c #B0BEAC",
"%.	c #909C8A",
"&.	c #506C7C",
"*.	c #567D94",
"=.	c #53AADD",
"-.	c #50ADE4",
";.	c #3AAFCD",
">.	c #38AECC",
",.	c #45B0DA",
"'.	c #1883AD",
").	c #1C55ED",
"!.	c #0039D1",
"~.	c #19337D",
"{.	c #223C86",
"].	c #555B51",
"^.	c #F6FCF7",
"/.	c #F2FAF3",
"(.	c #EDFAEE",
"_.	c #E9F7EB",
":.	c #E4F5E6",
"<.	c #E0F3E2",
"[.	c #DBF0DD",
"}.	c #D7EBD6",
"|.	c #D1E2CE",
"1.	c #C3D4C1",
"2.	c #B2BEAE",
"3.	c #809CAB",
"4.	c #65819D",
"5.	c #3768B2",
"6.	c #265DB5",
"7.	c #2D79D1",
"8.	c #4896F2",
"9.	c #41ADEF",
"0.	c #42AFF2",
"a.	c #4EA3FE",
"b.	c #1166C1",
"c.	c #005A9A",
"d.	c #0867A7",
"e.	c #1871AB",
"f.	c #0D66A0",
"g.	c #093C8D",
"h.	c #073A8B",
"i.	c #E8F7E9",
"j.	c #F5FBF6",
"k.	c #EFF9F0",
"l.	c #E9F8EA",
"m.	c #E4F6E5",
"n.	c #DEF4E0",
"o.	c #D9F1DB",
"p.	c #D3EDD5",
"q.	c #CDE9CE",
"r.	c #C8E0C6",
"s.	c #C0D4BA",
"t.	c #ACBEA9",
"u.	c #8F9A89",
"v.	c #65859C",
"w.	c #5C7B9E",
"x.	c #2E66B8",
"y.	c #1246A4",
"z.	c #0853AD",
"A.	c #2B7AD8",
"B.	c #35A2E4",
"C.	c #3BA8EB",
"D.	c #186DC8",
"E.	c #2F8ECE",
"F.	c #4AA9E9",
"G.	c #54ADE7",
"H.	c #3F98D2",
"I.	c #2E61B2",
"J.	c #124596",
"K.	c #3B4868",
"L.	c #EFFAF0",
"M.	c #ECF8ED",
"N.	c #E6F6E7",
"O.	c #E0F5E2",
"P.	c #D9F3DC",
"Q.	c #D3F0D5",
"R.	c #CCEDCF",
"S.	c #C4E7C7",
"T.	c #BCE0C0",
"U.	c #B4D5B4",
"V.	c #A5C1A3",
"W.	c #80A599",
"X.	c #5D807E",
"Y.	c #4B9BD4",
"Z.	c #4CA1EB",
"`.	c #3189F2",
" +	c #0A53C5",
".+	c #03349A",
"++	c #0D48AF",
"@+	c #1856BD",
"#+	c #1351B8",
"$+	c #0048C0",
"%+	c #276FE7",
"&+	c #30A5DA",
"*+	c #3FB4E9",
"=+	c #2DBCE6",
"-+	c #28B7E1",
";+	c #2895F4",
">+	c #0370CF",
",+	c #1A46B1",
"'+	c #1D49B4",
")+	c #EEF9F0",
"!+	c #E5F6E6",
"~+	c #DDF4DF",
"{+	c #D6F2D8",
"]+	c #CFEFD2",
"^+	c #C7ECCB",
"/+	c #BFE6C2",
"(+	c #B6DFBA",
"_+	c #ACD6B0",
":+	c #9EC29E",
"<+	c #85A182",
"[+	c #5E857F",
"}+	c #55787C",
"|+	c #4EA5EC",
"1+	c #57B2F6",
"2+	c #47A3FA",
"3+	c #1673E9",
"4+	c #0944AB",
"5+	c #00379F",
"6+	c #00379E",
"7+	c #0039A0",
"8+	c #337BF3",
"9+	c #35AADF",
"0+	c #38ADE2",
"a+	c #22B1DB",
"b+	c #27B6E0",
"c+	c #39A6FF",
"d+	c #1380DF",
"e+	c #2450BB",
"f+	c #1F4BB6",
"g+	c #373E50",
"h+	c #E7F7E8",
"i+	c #DCF3DD",
"j+	c #D3F0D6",
"k+	c #CBEECE",
"l+	c #C3EBC7",
"m+	c #BAE7BF",
"n+	c #B1E1B6",
"o+	c #A7D8AB",
"p+	c #9BC99D",
"q+	c #7DAF8C",
"r+	c #5A896E",
"s+	c #38838D",
"t+	c #4398AF",
"u+	c #35B2EA",
"v+	c #36B7F8",
"w+	c #40B2F1",
"x+	c #2EA0E2",
"y+	c #2A6DB3",
"z+	c #05488E",
"A+	c #0F3695",
"B+	c #2148A7",
"C+	c #074FB3",
"D+	c #3981E5",
"E+	c #3DA6FF",
"F+	c #41AAFF",
"G+	c #27B1E2",
"H+	c #28B2E3",
"I+	c #38AFF1",
"J+	c #1A91D3",
"K+	c #1E54E8",
"L+	c #2157EB",
"M+	c #233567",
"N+	c #DCF4DF",
"O+	c #D2F0D5",
"P+	c #C9EDCC",
"Q+	c #C0EAC4",
"R+	c #B7E7BC",
"S+	c #ADE2B1",
"T+	c #A4DDA9",
"U+	c #99D29D",
"V+	c #89BF8D",
"W+	c #6DA47E",
"X+	c #548569",
"Y+	c #398F9D",
"Z+	c #59B1CC",
"`+	c #3BBCF5",
" @	c #2DB0F4",
".@	c #34A6E7",
"+@	c #3BAEF0",
"@@	c #5093D9",
"#@	c #2568AE",
"$@	c #133A99",
"%@	c #103796",
"&@	c #044CB0",
"*@	c #276FD3",
"=@	c #3099F5",
"-@	c #32A9EB",
";@	c #2097D9",
">@	c #2056EA",
",@	c #203264",
"'@	c #D5F1D8",
")@	c #C9EECD",
"!@	c #BFE9C3",
"~@	c #B5E7BA",
"{@	c #ABE3B0",
"]@	c #A1DEA7",
"^@	c #97D89E",
"/@	c #90CC91",
"(@	c #84BA81",
"_@	c #6AA07E",
":@	c #568170",
"<@	c #3585AC",
"[@	c #52A0DC",
"}@	c #47AEE6",
"|@	c #3CA4E3",
"1@	c #30A3C7",
"2@	c #39ADD1",
"3@	c #42B6F3",
"4@	c #2DA1DE",
"5@	c #096ACB",
"6@	c #004AAB",
"7@	c #0341A6",
"8@	c #114FB4",
"9@	c #287FC6",
"0@	c #469DE4",
"a@	c #4BB4EB",
"b@	c #4CB5EC",
"c@	c #3A94EC",
"d@	c #227CD4",
"e@	c #2853DE",
"f@	c #1A45D0",
"g@	c #33474E",
"h@	c #D1EFD4",
"i@	c #B5E6B9",
"j@	c #AAE3AF",
"k@	c #A0DFA5",
"l@	c #94DA9B",
"m@	c #8BD593",
"n@	c #84CB86",
"o@	c #7CBC7A",
"p@	c #64A477",
"q@	c #487C61",
"r@	c #276F8A",
"s@	c #3081B3",
"t@	c #3DA5D7",
"u@	c #49B1ED",
"v@	c #40B3D5",
"w@	c #33A7CB",
"x@	c #39ADE9",
"y@	c #3EB2EF",
"z@	c #3091F2",
"A@	c #1172D3",
"B@	c #0947AC",
"C@	c #00389D",
"D@	c #035AA1",
"E@	c #257CC3",
"F@	c #3FA8DF",
"G@	c #4EB7EE",
"H@	c #318BE3",
"I@	c #126CC4",
"J@	c #1F4AD5",
"K@	c #123DC8",
"L@	c #54686F",
"M@	c #D0F0D3",
"N@	c #B7E7BB",
"O@	c #9FDFA6",
"P@	c #94DC9B",
"Q@	c #88D790",
"R@	c #7ED186",
"S@	c #76CA7D",
"T@	c #70C173",
"U@	c #69AF68",
"V@	c #5D9557",
"W@	c #40775A",
"X@	c #305A4E",
"Y@	c #2F7BA5",
"Z@	c #519BD2",
"`@	c #3FAFF8",
" #	c #30A0F9",
".#	c #30A6EB",
"+#	c #36ACF1",
"@#	c #3CA9D0",
"##	c #3AA7CE",
"$#	c #285ACB",
"%#	c #1A4CBD",
"&#	c #0B4EE7",
"*#	c #1053EC",
"=#	c #1B5FE6",
"-#	c #294F8D",
";#	c #264C8A",
">#	c #343C4F",
",#	c #4F576A",
"'#	c #D1F0D5",
")#	c #AFE5B4",
"!#	c #A2E0A7",
"~#	c #96DC9C",
"{#	c #8AD891",
"]#	c #7CD385",
"^#	c #73CE7B",
"/#	c #6AC972",
"(#	c #63C16A",
"_#	c #5FB662",
":#	c #5AA458",
"<#	c #448C5C",
"[#	c #387053",
"}#	c #16667D",
"|#	c #3280AA",
"1#	c #38A9F1",
"2#	c #3AABF8",
"3#	c #30A5E8",
"4#	c #34AAEF",
"5#	c #3EABD1",
"6#	c #319EC5",
"7#	c #2557C8",
"8#	c #1C4EBF",
"9#	c #0C4FE8",
"0#	c #0B4FD6",
"a#	c #0448CF",
"b#	c #1A407E",
"c#	c #575F72",
"d#	c #687083",
"e#	c #D6F1D9",
"f#	c #ADE4B2",
"g#	c #9ADDA0",
"h#	c #8DD994",
"i#	c #7FD587",
"j#	c #72D07C",
"k#	c #68CB71",
"l#	c #5DC767",
"m#	c #56C15E",
"n#	c #51BA58",
"o#	c #50AF53",
"p#	c #49A050",
"q#	c #438948",
"r#	c #1C6A49",
"s#	c #226556",
"t#	c #2D869E",
"u#	c #4EA4C7",
"v#	c #4BABEE",
"w#	c #4AAAF2",
"x#	c #3997EF",
"y#	c #1775CE",
"z#	c #1141AD",
"A#	c #1C4CB8",
"B#	c #1F4FB3",
"C#	c #1141A5",
"D#	c #133E9D",
"E#	c #123D9C",
"F#	c #1E3871",
"G#	c #2D4780",
"H#	c #5F5F5D",
"I#	c #B8E8BD",
"J#	c #92DB99",
"K#	c #84D68C",
"L#	c #76D17F",
"M#	c #69CD73",
"N#	c #5DC867",
"O#	c #51C45C",
"P#	c #48BF53",
"Q#	c #42BA4D",
"R#	c #41B349",
"S#	c #3FAA49",
"T#	c #409B47",
"U#	c #2C8951",
"V#	c #186946",
"W#	c #11676B",
"X#	c #318BA0",
"Y#	c #4DAFE7",
"Z#	c #4CADED",
"`#	c #2381D5",
" $	c #0052AC",
".$	c #1242AE",
"+$	c #0F3FAB",
"@$	c #09399D",
"#$	c #023296",
"$$	c #113C9B",
"%$	c #152F68",
"&$	c #1D3770",
"*$	c #565654",
"=$	c #C6ECCA",
"-$	c #99DDA0",
";$	c #7CD485",
">$	c #6ECF78",
",$	c #61CA6A",
"'$	c #53C65F",
")$	c #47C153",
"!$	c #3DBD49",
"~$	c #34B840",
"{$	c #30B43C",
"]$	c #32AD3A",
"^$	c #36A53B",
"/$	c #389C40",
"($	c #318336",
"_$	c #1A693C",
":$	c #2C6E51",
"<$	c #438DA7",
"[$	c #488CB4",
"}$	c #1D62C3",
"|$	c #0041AC",
"1$	c #1049A2",
"2$	c #0A439C",
"3$	c #0940A4",
"4$	c #033A9E",
"5$	c #00409A",
"6$	c #00419B",
"7$	c #0057AE",
"8$	c #2381D8",
"9$	c #367AC1",
"0$	c #1E62A9",
"a$	c #B1E5B6",
"b$	c #81D589",
"c$	c #68CD72",
"d$	c #5AC864",
"e$	c #4CC357",
"f$	c #3FBF4B",
"g$	c #33BA40",
"h$	c #29B737",
"i$	c #24B230",
"j$	c #22AF2E",
"k$	c #25A92E",
"l$	c #28A232",
"m$	c #319B3A",
"n$	c #278943",
"o$	c #207440",
"p$	c #1C7171",
"q$	c #266D89",
"r$	c #0D50BB",
"s$	c #0F52BD",
"t$	c #0F48A1",
"u$	c #144DA6",
"v$	c #144BAF",
"w$	c #01389C",
"x$	c #0049A3",
"y$	c #2E7BD5",
"z$	c #4FADFF",
"A$	c #6AC8FF",
"B$	c #70B4FB",
"C$	c #3074BB",
"D$	c #A1E0A7",
"E$	c #72D17B",
"F$	c #55C65F",
"G$	c #47C152",
"H$	c #39BD46",
"I$	c #2DB93A",
"J$	c #22B42F",
"K$	c #19B227",
"L$	c #15AD22",
"M$	c #15A923",
"N$	c #1AA526",
"O$	c #26A32F",
"P$	c #2F9A38",
"Q$	c #318938",
"R$	c #317251",
"S$	c #253856",
"T$	c #254580",
"U$	c #2E4E89",
"V$	c #3E4A86",
"W$	c #333F7B",
"X$	c #1E3C54",
"Y$	c #0E2C44",
"Z$	c #1D5089",
"`$	c #689BD4",
" %	c #6CADFF",
".%	c #4D8EEA",
"+%	c #2C638C",
"@%	c #9CDFA2",
"#%	c #71CF7A",
"$%	c #46C152",
"%%	c #35BC42",
"&%	c #29B836",
"*%	c #1DB42B",
"=%	c #12AF21",
"-%	c #0BAC1A",
";%	c #09AA18",
">%	c #10A81D",
",%	c #1AA625",
"'%	c #2FA639",
")%	c #4D9C54",
"!%	c #23437E",
"~%	c #1E3E79",
"{%	c #293571",
"]%	c #2A4860",
"^%	c #203E56",
"/%	c #00326B",
"(%	c #10437C",
"_%	c #0647A3",
":%	c #003490",
"<%	c #5DC967",
"[%	c #3BBE48",
"}%	c #22B530",
"|%	c #11AF20",
"1%	c #0FAE1D",
"2%	c #12AE21",
"3%	c #27B335",
"4%	c #41B64C",
"                                                                    ",
"                                                                    ",
"                                    . + @ # $                       ",
"            % & * = = - ; > ,   ' ) ! ~ { ] ^ / (                   ",
"        _ : < < < [ < } | 1 2 3 4 5 6 7 8 9 0 a b                   ",
"      c d [ e d f g h i j k l m n o p q r s t u v w                 ",
"    c x d y z A B C D E F G H I J K L M N O P Q R S T               ",
"  U V W X Y Z `  ...+.@.#.$.%.&.*.=.-.;.>.,.'.).!.~.{.].            ",
"  Y ^./.(._.:.<.[.}.|.1.2.3.4.5.6.7.8.9.0.a.b.c.d.e.f.g.h.          ",
"i.j.k.l.m.n.o.p.q.r.s.t.u.v.w.x.y.z.A.B.C.D.D.E.F.G.H.I.J.K.        ",
"L.M.N.O.P.Q.R.S.T.U.V.W.X.Y.Z.`. +.+++@+#+$+%+&+*+=+-+;+>+,+'+      ",
")+!+~+{+]+^+/+(+_+:+<+[+}+|+1+2+3+4+5+6+7+$+8+9+0+a+b+c+d+e+f+g+    ",
"h+i+j+k+l+m+n+o+p+q+r+s+t+u+v+w+x+y+z+A+B+C+D+E+F+G+H+I+J+K+L+M+    ",
"N+O+P+Q+R+S+T+U+V+W+X+Y+Z+`+ @.@+@@@#@$@%@&@*@=@E+G+G+-@;@L+>@,@    ",
"'@)@!@~@{@]@^@/@(@_@:@<@[@}@|@1@2@3@4@5@6@7@8@9@0@a@b@c@d@e@f@g@    ",
"h@Q+i@j@k@l@m@n@o@p@q@r@s@t@u@v@w@x@y@z@A@B@C@D@E@F@G@H@I@J@K@L@    ",
"M@N@{@O@P@Q@R@S@T@U@V@W@X@Y@Z@`@ #.#+#@###$#%#&#*#=#=#-#;#>#,#      ",
"'#)#!#~#{#]#^#/#(#_#:#<#[#}#|#1#2#3#4#5#6#7#8#9#&#0#a#b#-#c#d#      ",
"e#f#g#h#i#j#k#l#m#n#o#p#q#r#s#t#u#v#w#x#y#z#A#B#C#D#E#F#G#H#        ",
"  I#J#K#L#M#N#O#P#Q#R#S#T#U#V#W#X#Y#Z#`# $.$+$@$#$$$D#%$&$*$        ",
"  =$-$;$>$,$'$)$!$~${$]$^$/$($_$:$<$[$}$|$1$2$3$4$5$6$7$8$9$0$      ",
"    a$b$c$d$e$f$g$h$i$j$k$l$m$n$o$p$q$r$s$t$u$v$w$x$y$z$A$B$C$      ",
"      D$E$F$G$H$I$J$K$L$M$N$O$P$Q$R$S$T$U$V$W$X$Y$Z$`$ %.%+%        ",
"        @%#%$%%%&%*%=%-%;%>%,%'%)%    !%~%W${%]%^%/%(%_%:%          ",
"            b$<%[%}%|%1%2%3%4%                                      ",
"                                                                    ",
"                                                                    ",
"                                                                    "};
