/* XPM */
static const char * cam3_xpm[] = {
"35 30 331 2",
"  	c None",
". 	c #1C70AE",
"+ 	c #1981CA",
"@ 	c #036BB4",
"# 	c #0A3987",
"$ 	c #103F8D",
"% 	c #254264",
"& 	c #3286C4",
"* 	c #5EB2F0",
"= 	c #53BBFF",
"- 	c #3BA3EC",
"; 	c #3F6EBC",
"> 	c #204F9D",
", 	c #2C4470",
"' 	c #3D5581",
") 	c #3E6582",
"! 	c #259EE5",
"~ 	c #3CB5FC",
"{ 	c #21AFED",
"] 	c #1DABE9",
"^ 	c #349ADC",
"/ 	c #056BAD",
"( 	c #244ED8",
"_ 	c #1A44CE",
": 	c #09304D",
"< 	c #517895",
"[ 	c #34ADF4",
"} 	c #3EB7FE",
"| 	c #1EACEA",
"1 	c #29B7F5",
"2 	c #3DA3E5",
"3 	c #1D83C5",
"4 	c #345EE8",
"5 	c #153FC9",
"6 	c #313453",
"7 	c #002546",
"8 	c #3E6B8C",
"9 	c #45A5DF",
"0 	c #4EAEE8",
"a 	c #34AAC8",
"b 	c #3AB0CE",
"c 	c #3BA6D0",
"d 	c #1F8AB4",
"e 	c #2760F8",
"f 	c #0942DA",
"g 	c #152F79",
"h 	c #455FA9",
"i 	c #002243",
"j 	c #315E7F",
"k 	c #42A2DC",
"l 	c #4AAAE4",
"m 	c #39AFCD",
"n 	c #38AECC",
"o 	c #45B0DA",
"p 	c #1883AD",
"q 	c #1C55ED",
"r 	c #0039D1",
"s 	c #19337D",
"t 	c #223C86",
"u 	c #555B51",
"v 	c #193775",
"w 	c #0039A3",
"x 	c #0845AF",
"y 	c #2171D0",
"z 	c #4494F3",
"A 	c #40ADF0",
"B 	c #42AFF2",
"C 	c #4EA3FE",
"D 	c #1166C1",
"E 	c #005A9A",
"F 	c #0867A7",
"G 	c #1871AB",
"H 	c #0D66A0",
"I 	c #093C8D",
"J 	c #073A8B",
"K 	c #1B3977",
"L 	c #2E4C8A",
"M 	c #0C49B3",
"N 	c #0036A0",
"O 	c #004DAC",
"P 	c #2979D8",
"Q 	c #35A2E5",
"R 	c #3BA8EB",
"S 	c #186DC8",
"T 	c #2F8ECE",
"U 	c #4AA9E9",
"V 	c #54ADE7",
"W 	c #3F98D2",
"X 	c #2E61B2",
"Y 	c #124596",
"Z 	c #3B4868",
"` 	c #0F2A47",
" .	c #1979DD",
"..	c #3191F5",
"+.	c #207EF8",
"@.	c #004BC5",
"#.	c #003199",
"$.	c #0C47AF",
"%.	c #1856BD",
"&.	c #1351B8",
"*.	c #0048C0",
"=.	c #276FE7",
"-.	c #30A5DA",
";.	c #3FB4E9",
">.	c #2DBCE6",
",.	c #28B7E1",
"'.	c #2895F4",
").	c #0370CF",
"!.	c #1A46B1",
"~.	c #1D49B4",
"{.	c #1B3653",
"].	c #2B4663",
"^.	c #3696FA",
"/.	c #4CACFF",
"(.	c #419FFF",
"_.	c #1371EB",
":.	c #0843AB",
"<.	c #00379F",
"[.	c #00379E",
"}.	c #0039A0",
"|.	c #337BF3",
"1.	c #35AADF",
"2.	c #38ADE2",
"3.	c #22B1DB",
"4.	c #27B6E0",
"5.	c #39A6FF",
"6.	c #1380DF",
"7.	c #2450BB",
"8.	c #1F4BB6",
"9.	c #373E50",
"0.	c #005281",
"a.	c #2984B3",
"b.	c #26ACF5",
"c.	c #2FB5FE",
"d.	c #3EB1F4",
"e.	c #2DA0E3",
"f.	c #2A6DB3",
"g.	c #05488E",
"h.	c #0F3695",
"i.	c #2148A7",
"j.	c #074FB3",
"k.	c #3981E5",
"l.	c #3DA6FF",
"m.	c #41AAFF",
"n.	c #27B1E2",
"o.	c #28B2E3",
"p.	c #38AFF1",
"q.	c #1A91D3",
"r.	c #1E54E8",
"s.	c #2157EB",
"t.	c #233567",
"u.	c #223F43",
"v.	c #1671A0",
"w.	c #4EA9D8",
"x.	c #34BAFF",
"y.	c #29AFF8",
"z.	c #33A6E9",
"A.	c #3BAEF1",
"B.	c #5093D9",
"C.	c #2568AE",
"D.	c #133A99",
"E.	c #103796",
"F.	c #044CB0",
"G.	c #276FD3",
"H.	c #3099F5",
"I.	c #32A9EB",
"J.	c #2097D9",
"K.	c #2056EA",
"L.	c #203264",
"M.	c #323B5C",
"N.	c #1764BC",
"O.	c #4996EE",
"P.	c #42ABEF",
"Q.	c #3AA3E7",
"R.	c #2FA3C8",
"S.	c #39ADD2",
"T.	c #42B6F3",
"U.	c #2DA1DE",
"V.	c #096ACB",
"W.	c #004AAB",
"X.	c #0341A6",
"Y.	c #114FB4",
"Z.	c #287FC6",
"`.	c #469DE4",
" +	c #4BB4EB",
".+	c #4CB5EC",
"++	c #3A94EC",
"@+	c #227CD4",
"#+	c #2853DE",
"$+	c #1A45D0",
"%+	c #33474E",
"&+	c #003C94",
"*+	c #1F6CC4",
"=+	c #37A0E4",
"-+	c #47B0F4",
";+	c #3FB3D8",
">+	c #33A7CC",
",+	c #39ADEA",
"'+	c #3EB2EF",
")+	c #3091F2",
"!+	c #1172D3",
"~+	c #0947AC",
"{+	c #00389D",
"]+	c #035AA1",
"^+	c #257CC3",
"/+	c #3FA8DF",
"(+	c #4EB7EE",
"_+	c #318BE3",
":+	c #126CC4",
"<+	c #1F4AD5",
"[+	c #123DC8",
"}+	c #54686F",
"|+	c #25334D",
"1+	c #1B2943",
"2+	c #246AB2",
"3+	c #5096DE",
"4+	c #3DAEFF",
"5+	c #2FA0FC",
"6+	c #30A6EC",
"7+	c #36ACF2",
"8+	c #3CA9D0",
"9+	c #3AA7CE",
"0+	c #285ACB",
"a+	c #1A4CBD",
"b+	c #0B4EE7",
"c+	c #1053EC",
"d+	c #1B5FE6",
"e+	c #294F8D",
"f+	c #264C8A",
"g+	c #343C4F",
"h+	c #4F576A",
"i+	c #26344E",
"j+	c #00428A",
"k+	c #2C72BA",
"l+	c #35A6FF",
"m+	c #39AAFF",
"n+	c #2FA5EB",
"o+	c #34AAF0",
"p+	c #3EABD2",
"q+	c #319EC5",
"r+	c #2557C8",
"s+	c #1C4EBF",
"t+	c #0C4FE8",
"u+	c #0B4FD6",
"v+	c #0448CF",
"w+	c #1A407E",
"x+	c #575F72",
"y+	c #687083",
"z+	c #033246",
"A+	c #154458",
"B+	c #277AAC",
"C+	c #4EA1D3",
"D+	c #4AAAF6",
"E+	c #3997F1",
"F+	c #1775CF",
"G+	c #1141AD",
"H+	c #1C4CB8",
"I+	c #1F4FB3",
"J+	c #1141A5",
"K+	c #133E9D",
"L+	c #123D9C",
"M+	c #1E3871",
"N+	c #2D4780",
"O+	c #5F5F5D",
"P+	c #043347",
"Q+	c #004678",
"R+	c #2D80B2",
"S+	c #4DADF9",
"T+	c #4BABF7",
"U+	c #217FD9",
"V+	c #0052AC",
"W+	c #1242AE",
"X+	c #0F3FAB",
"Y+	c #09399D",
"Z+	c #023296",
"`+	c #113C9B",
" @	c #152F68",
".@	c #1D3770",
"+@	c #565654",
"@@	c #082E39",
"#@	c #254B56",
"$@	c #437FBE",
"%@	c #4884C3",
"&@	c #1A5DC8",
"*@	c #0041AC",
"=@	c #1049A2",
"-@	c #0A439C",
";@	c #0940A4",
">@	c #033A9E",
",@	c #00409A",
"'@	c #00419B",
")@	c #0057AE",
"!@	c #2381D8",
"~@	c #367AC1",
"{@	c #1E62A9",
"]@	c #103641",
"^@	c #0C4887",
"/@	c #1A5695",
"(@	c #0D50BB",
"_@	c #0F52BD",
":@	c #0F48A1",
"<@	c #144DA6",
"[@	c #144BAF",
"}@	c #01389C",
"|@	c #0049A3",
"1@	c #2E7BD5",
"2@	c #4FADFF",
"3@	c #6AC8FF",
"4@	c #70B4FB",
"5@	c #3074BB",
"6@	c #253856",
"7@	c #254580",
"8@	c #2E4E89",
"9@	c #3E4A86",
"0@	c #333F7B",
"a@	c #1E3C54",
"b@	c #0E2C44",
"c@	c #1D5089",
"d@	c #689BD4",
"e@	c #6CADFF",
"f@	c #4D8EEA",
"g@	c #2C638C",
"h@	c #23437E",
"i@	c #1E3E79",
"j@	c #293571",
"k@	c #2A4860",
"l@	c #203E56",
"m@	c #00326B",
"n@	c #10437C",
"o@	c #0647A3",
"p@	c #003490",
"                                                                      ",
"                                                                      ",
"                          . + @ # $                                   ",
"                      % & * = - ; > , '                               ",
"                      ) ! ~ { ] ^ / ( _                               ",
"                    : < [ } | 1 2 3 4 5 6                             ",
"                    7 8 9 0 a b c d e f g h                           ",
"                    i j k l m n o p q r s t u                         ",
"                  v w x y z A B C D E F G H I J                       ",
"                K L M N O P Q R S S T U V W X Y Z                     ",
"              `  ...+.@.#.$.%.&.*.=.-.;.>.,.'.).!.~.                  ",
"            {.].^./.(._.:.<.[.}.*.|.1.2.3.4.5.6.7.8.9.                ",
"            0.a.b.c.d.e.f.g.h.i.j.k.l.m.n.o.p.q.r.s.t.                ",
"          u.v.w.x.y.z.A.B.C.D.E.F.G.H.l.n.n.I.J.s.K.L.                ",
"          M.N.O.P.Q.R.S.T.U.V.W.X.Y.Z.`. +.+++@+#+$+%+                ",
"            &+*+=+-+;+>+,+'+)+!+~+{+]+^+/+(+_+:+<+[+}+                ",
"            |+1+2+3+4+5+6+7+8+9+0+a+b+c+d+d+e+f+g+h+                  ",
"              i+j+k+l+m+n+o+p+q+r+s+t+b+u+v+w+e+x+y+                  ",
"                z+A+B+C+D+D+E+F+G+H+I+J+K+L+M+N+O+                    ",
"                  P+Q+R+S+T+U+V+W+X+Y+Z+`+K+ @.@+@                    ",
"                    @@#@$@%@&@*@=@-@;@>@,@'@)@!@~@{@                  ",
"                      ]@^@/@(@_@:@<@[@}@|@1@2@3@4@5@                  ",
"                          6@7@8@9@0@a@b@c@d@e@f@g@                    ",
"                            h@i@0@j@k@l@m@n@o@p@                      ",
"                                                                      ",
"                                                                      ",
"                                                                      ",
"                                                                      ",
"                                                                      ",
"                                                                      "};
