/* XPM */
static const char * icon1_xpm[] = {
"50 50 256 2",
"  	c None",
". 	c #6B848A",
"+ 	c #707A7C",
"@ 	c #6B7D83",
"# 	c #71797D",
"$ 	c #6B787C",
"% 	c #686D70",
"& 	c #6A7679",
"* 	c #6A7375",
"= 	c #697375",
"- 	c #58676B",
"; 	c #6C787B",
"> 	c #637072",
", 	c #465960",
"' 	c #2E474D",
") 	c #657C80",
"! 	c #425961",
"~ 	c #6C7777",
"{ 	c #6D7474",
"] 	c #677679",
"^ 	c #697073",
"/ 	c #636E70",
"( 	c #657276",
"_ 	c #547178",
": 	c #5A7377",
"< 	c #607176",
"[ 	c #657E84",
"} 	c #708C91",
"| 	c #75898C",
"1 	c #738484",
"2 	c #747A7B",
"3 	c #6F7A7C",
"4 	c #677374",
"5 	c #5F6C70",
"6 	c #4C666E",
"7 	c #607E86",
"8 	c #5B7B82",
"9 	c #3E585F",
"0 	c #334E55",
"a 	c #425F66",
"b 	c #587880",
"c 	c #6F9199",
"d 	c #70949C",
"e 	c #708B91",
"f 	c #71797B",
"g 	c #5A777D",
"h 	c #658890",
"i 	c #73959D",
"j 	c #54747C",
"k 	c #446068",
"l 	c #6C8C90",
"m 	c #709299",
"n 	c #738F95",
"o 	c #747C80",
"p 	c #5D767C",
"q 	c #678387",
"r 	c #607C80",
"s 	c #384C50",
"t 	c #2C4850",
"u 	c #405C64",
"v 	c #688488",
"w 	c #60848C",
"x 	c #608088",
"y 	c #708082",
"z 	c #607075",
"A 	c #61787C",
"B 	c #708084",
"C 	c #346070",
"D 	c #3C4C54",
"E 	c #708C94",
"F 	c #78A0A4",
"G 	c #98BCC0",
"H 	c #92B3B7",
"I 	c #829698",
"J 	c #677378",
"K 	c #627378",
"L 	c #65777B",
"M 	c #507078",
"N 	c #5C787C",
"O 	c #5C7C84",
"P 	c #7498A0",
"Q 	c #7CA4AC",
"R 	c #7DA3AB",
"S 	c #7A9EA6",
"T 	c #2C4951",
"U 	c #2D4B53",
"V 	c #2B4A52",
"W 	c #2B4952",
"X 	c #243D48",
"Y 	c #26404A",
"Z 	c #2E4850",
"` 	c #57777F",
" .	c #546C72",
"..	c #627175",
"+.	c #717F82",
"@.	c #718589",
"#.	c #6F8991",
"$.	c #63858D",
"%.	c #678A91",
"&.	c #688C94",
"*.	c #4C6C74",
"=.	c #58787C",
"-.	c #84A8B0",
";.	c #63848C",
">.	c #71959C",
",.	c #85ACB4",
"'.	c #7FA4AC",
").	c #A7D9E1",
"!.	c #AADCE4",
"~.	c #9AC8D0",
"{.	c #4D6B73",
"].	c #48656D",
"^.	c #90BBC3",
"/.	c #96C3CA",
"(.	c #88B1B9",
"_.	c #2D4C54",
":.	c #465F66",
"<.	c #4D6266",
"[.	c #606D6E",
"}.	c #748788",
"|.	c #73898A",
"1.	c #759498",
"2.	c #74969D",
"3.	c #74979F",
"4.	c #6F939B",
"5.	c #6C9098",
"6.	c #648890",
"7.	c #78A0A5",
"8.	c #83AAB2",
"9.	c #B4E8F0",
"0.	c #ACDCE4",
"a.	c #9CC8D0",
"b.	c #98C6CE",
"c.	c #8CB8C0",
"d.	c #3B5860",
"e.	c #3A555D",
"f.	c #2F4A53",
"g.	c #334E56",
"h.	c #5D686D",
"i.	c #708F97",
"j.	c #70939A",
"k.	c #70949B",
"l.	c #74989F",
"m.	c #749CA4",
"n.	c #7CA0A8",
"o.	c #88B0B8",
"p.	c #B0E4EC",
"q.	c #90BCC4",
"r.	c #3C5860",
"s.	c #38545C",
"t.	c #3F5B63",
"u.	c #304C54",
"v.	c #102C34",
"w.	c #2B4149",
"x.	c #485E63",
"y.	c #6D8F97",
"z.	c #8CB4BC",
"A.	c #94C0C8",
"B.	c #486870",
"C.	c #243C44",
"D.	c #223C43",
"E.	c #5D6668",
"F.	c #6B787B",
"G.	c #617E85",
"H.	c #5A7B83",
"I.	c #344C54",
"J.	c #2C444C",
"K.	c #284048",
"L.	c #203C44",
"M.	c #547478",
"N.	c #2F4B53",
"O.	c #274048",
"P.	c #627E85",
"Q.	c #60838B",
"R.	c #203844",
"S.	c #1C3840",
"T.	c #283F48",
"U.	c #585F61",
"V.	c #55757D",
"W.	c #18303C",
"X.	c #18343C",
"Y.	c #082B36",
"Z.	c #112E39",
"`.	c #445157",
" +	c #1B353D",
".+	c #142C38",
"++	c #48646C",
"@+	c #002430",
"#+	c #092B36",
"$+	c #0D2B37",
"%+	c #38474D",
"&+	c #36454B",
"*+	c #1E3642",
"=+	c #143038",
"-+	c #082830",
";+	c #385058",
">+	c #042733",
",+	c #032632",
"'+	c #0B2B36",
")+	c #3D4C50",
"!+	c #475355",
"~+	c #062733",
"{+	c #15323B",
"]+	c #19363E",
"^+	c #0C2834",
"/+	c #072934",
"(+	c #042632",
"_+	c #052733",
":+	c #052832",
"<+	c #293E44",
"[+	c #465255",
"}+	c #314248",
"|+	c #1F353D",
"1+	c #092935",
"2+	c #052732",
"3+	c #082A35",
"4+	c #072833",
"5+	c #032631",
"6+	c #032531",
"7+	c #0C1A1E",
"8+	c #000000",
"9+	c #062833",
"0+	c #0A2B36",
"a+	c #0D2A33",
"b+	c #2B3A42",
"c+	c #414B51",
"d+	c #546063",
"e+	c #495456",
"f+	c #304146",
"g+	c #1D333C",
"h+	c #042631",
"i+	c #022531",
"j+	c #01202A",
"k+	c #011B24",
"l+	c #000D12",
"m+	c #000609",
"n+	c #01090C",
"o+	c #00090C",
"p+	c #061F26",
"q+	c #263438",
"r+	c #4B5556",
"s+	c #575D60",
"t+	c #545B60",
"u+	c #4D5558",
"v+	c #434E51",
"w+	c #36454A",
"x+	c #2A3A3F",
"y+	c #20343C",
"z+	c #132E37",
"A+	c #002530",
"B+	c #001116",
"C+	c #021B23",
"D+	c #20343D",
"E+	c #293B43",
"F+	c #030303",
"G+	c #000102",
"                                                                                                    ",
"                                                                                                    ",
"                                                                                                    ",
"                . +                                                                                 ",
"                @ #                                                                                 ",
"                  $                                                                                 ",
"                  %       & * = -                                                                   ",
"                          ; > , '                                                                   ",
"                    )         !         ~ {                                                         ",
"                    ] ^ / ( _ : < [ } | 1 2 3                                                       ",
"                    4 5 6 7 8 9 0 a b c d d e f                                                     ",
"                      g h d i j k l d d d m n o                                                     ",
"                      p q r s t u v w x $ y                                                         ",
"                      z A B C D r E F r G H I                                                       ",
"                    J   K L l M N d d O P Q R S     T U V W X Y Z `  ...                            ",
"                +.@.#.$.%.&.d *.d O =.*.-.P -.;.>.,.'.).!.~.{.k ].^./.(._.  :.<.[.                  ",
"          }.|.1.2.3.P 4.5.5.&.b b w =.w 6.F P 6.7.8.6.9.9.0.&.6.b a.b.c.d.e.f.g.h.                  ",
"        i.j.k.l.P P P P P P m.b P =.&.P n.&.O w o.w d 9.p.q.r.O d O w s.u t.u.v.w.x.                ",
"        y.4.d d P P P d d d x u u u *.*.=.b O w P d P p.0.-.t O z.A.d u u u B.C.v.D.E.              ",
"    F.G.H.b b b b b x x x x I.k J.J.C.K.L.C.L.C.P d d d x M.J.s.6.6.u.u.u.k k I.N.O.                ",
"    P.Q.x O b b b b b x B.=.J.R.S.S.S.R.S.S.R.t d Q Q 6.*.u.C.K.J.t t t t r.J.t k T.U.              ",
"    V.O w x O b b b =.*.J.t W.X.X.X.W.X.X.X.X.X.t d -.O k I.t J.t t t t u.S.J.s.Y.Z.                ",
"  `. +.+W.X.X.X.S.R.R.C.S.S.X.W.W.W.X.X.W.X.X.W.X.X.J.++u.t t J.t J.J.t u W.@+#+$+%+                ",
"  &+*+S.=+@+-+v..+v.=+L.C.J.X.X.W.X.X.=+X.=+X.X.X.W.X.J.t t t t s.;+=+@+>+,+'+)+                    ",
"  !+'+~+{+]+S.X.v.^+^+R.J.t S.R.R.R.R.S.R.S.S.R.R.R.R.C.t t J.t t /+(+_+:+<+[+                      ",
"    }+|+1+2+3+4+5+6+@+-+v.v.X.X.S.S.S.S.S.7+8+8+8+8+8+8+8+@+9+3+0+a+b+c+                            ",
"            d+e+f+g+1+9+~+h+h+(+5+i+i+j+k+l+8+m+n+n+o+8+8+p+q+r+s+                                  ",
"                    t+u+v+w+x+y+z+5+A+B+8+8+8+C+z+D+E+8+8+8+F+                                      ",
"                                      G+8+8+8+        8+8+8+8+                                      ",
"                                      8+8+8+8+        8+8+8+8+                                      ",
"                                        8+8+8+        8+8+8+8+                                      ",
"                                                      8+8+8+8+                                      ",
"                                                    8+8+8+8+                                        ",
"                                                  8+8+8+8+                                          ",
"                                              8+8+8+8+                                              ",
"                                              8+8+8+8+                                              ",
"                                            8+8+8+                                                  ",
"                                          8+8+8+8+                                                  ",
"                                      8+8+8+8+                                                      ",
"                                      8+8+8+8+                                                      ",
"                                      8+8+8+8+                                                      ",
"                                      8+8+8+8+                                                      ",
"                                      8+8+8+8+8+8+8+8+8+8+8+8+                                      ",
"                                        8+8+8+8+8+8+8+8+8+8+8+                                      ",
"                                                                                                    ",
"                                                                                                    ",
"                                                                                                    ",
"                                                                                                    ",
"                                                                                                    ",
"                                                                                                    "};

