/* XPM */
static const char * icon4_xpm[] = {
"50 50 600 2",
"  	c None",
". 	c #5E7C84",
"+ 	c #587588",
"@ 	c #587179",
"# 	c #587278",
"$ 	c #567278",
"% 	c #587483",
"& 	c #57737E",
"* 	c #5D676C",
"= 	c #697A7F",
"- 	c #6A7878",
"; 	c #6F8186",
"> 	c #021F27",
", 	c #05222A",
"' 	c #243E46",
") 	c #2D464E",
"! 	c #112E36",
"~ 	c #756C6A",
"{ 	c #66797E",
"] 	c #3C5961",
"^ 	c #74797B",
"/ 	c #67868D",
"( 	c #67686B",
"_ 	c #183038",
": 	c #133038",
"< 	c #1D3641",
"[ 	c #052129",
"} 	c #183238",
"| 	c #1A3840",
"1 	c #3F6169",
"2 	c #80A5AE",
"3 	c #82A7AF",
"4 	c #41636A",
"5 	c #233E45",
"6 	c #415F64",
"7 	c #405E64",
"8 	c #16313A",
"9 	c #08222A",
"0 	c #132E36",
"a 	c #6C888F",
"b 	c #485D66",
"c 	c #6E949C",
"d 	c #668B93",
"e 	c #668389",
"f 	c #6D7375",
"g 	c #6D6E6C",
"h 	c #749096",
"i 	c #788488",
"j 	c #213F47",
"k 	c #09232B",
"l 	c #143038",
"m 	c #224046",
"n 	c #53777E",
"o 	c #69919A",
"p 	c #84ADB5",
"q 	c #8EB8C0",
"r 	c #7CA3AA",
"s 	c #678B94",
"t 	c #5C7D84",
"u 	c #38545A",
"v 	c #5C7C84",
"w 	c #63858D",
"x 	c #415F66",
"y 	c #52747B",
"z 	c #63848B",
"A 	c #5D6D72",
"B 	c #678F98",
"C 	c #6C9199",
"D 	c #7FA2A9",
"E 	c #26404B",
"F 	c #64868D",
"G 	c #5C7880",
"H 	c #647C80",
"I 	c #737E82",
"J 	c #78878D",
"K 	c #626666",
"L 	c #646C6B",
"M 	c #687779",
"N 	c #6F868A",
"O 	c #739299",
"P 	c #38535B",
"Q 	c #425B63",
"R 	c #5C838B",
"S 	c #2B434C",
"T 	c #395860",
"U 	c #4A6971",
"V 	c #53727A",
"W 	c #7AA0A6",
"X 	c #7DA1AA",
"Y 	c #78A0A8",
"Z 	c #5F838A",
"` 	c #527378",
" .	c #516D75",
"..	c #274048",
"+.	c #2F4C55",
"@.	c #5D7E86",
"#.	c #6D9299",
"$.	c #547982",
"%.	c #335863",
"&.	c #092D3A",
"*.	c #636568",
"=.	c #5A6569",
"-.	c #4B666D",
";.	c #5C7E87",
">.	c #607F87",
",.	c #61828B",
"'.	c #60858D",
").	c #6A8B94",
"!.	c #769EA6",
"~.	c #7D9EA3",
"{.	c #7F9EA3",
"].	c #71969D",
"^.	c #658C95",
"/.	c #688F98",
"(.	c #264148",
"_.	c #28444C",
":.	c #546F77",
"<.	c #6C8F97",
"[.	c #507075",
"}.	c #65848C",
"|.	c #5B7B80",
"1.	c #47656D",
"2.	c #4B6870",
"3.	c #38545C",
"4.	c #43626A",
"5.	c #405B63",
"6.	c #405C64",
"7.	c #2A464E",
"8.	c #1A363D",
"9.	c #1C343F",
"0.	c #2C434F",
"a.	c #314B54",
"b.	c #3F5960",
"c.	c #325058",
"d.	c #082631",
"e.	c #001724",
"f.	c #001C28",
"g.	c #001C29",
"h.	c #5A676B",
"i.	c #5B757B",
"j.	c #5D7C84",
"k.	c #567279",
"l.	c #4B696E",
"m.	c #57777E",
"n.	c #80A4AC",
"o.	c #85ADB5",
"p.	c #92BDC5",
"q.	c #7FA7B0",
"r.	c #62868E",
"s.	c #5E8189",
"t.	c #62858D",
"u.	c #6B8E95",
"v.	c #456068",
"w.	c #29434B",
"x.	c #49676F",
"y.	c #5F7A82",
"z.	c #5A7D85",
"A.	c #35545B",
"B.	c #4A656D",
"C.	c #49656D",
"D.	c #3F5C64",
"E.	c #2F4B53",
"F.	c #2D474F",
"G.	c #273F47",
"H.	c #15303A",
"I.	c #092A34",
"J.	c #04272F",
"K.	c #07272F",
"L.	c #03232F",
"M.	c #122F39",
"N.	c #344A52",
"O.	c #24424B",
"P.	c #0A2C36",
"Q.	c #00222E",
"R.	c #00232F",
"S.	c #001F2C",
"T.	c #24363E",
"U.	c #5B6063",
"V.	c #707B7C",
"W.	c #707176",
"X.	c #4C656D",
"Y.	c #486169",
"Z.	c #4B6A71",
"`.	c #38575C",
" +	c #37505C",
".+	c #324A55",
"++	c #445F66",
"@+	c #8BB2BA",
"#+	c #7FA6AE",
"$+	c #608189",
"%+	c #57767E",
"&+	c #3E5C64",
"*+	c #2B4651",
"=+	c #2A464F",
"-+	c #3B575E",
";+	c #557179",
">+	c #243E45",
",+	c #011621",
"'+	c #072632",
")+	c #334B52",
"!+	c #57777F",
"~+	c #5A7B83",
"{+	c #223E46",
"]+	c #2B464E",
"^+	c #19333C",
"/+	c #001A27",
"(+	c #001F2A",
"_+	c #00222F",
":+	c #0A2C38",
"<+	c #213E47",
"[+	c #2B474F",
"}+	c #122B35",
"|+	c #001D2A",
"1+	c #00212E",
"2+	c #002430",
"3+	c #082B36",
"4+	c #54575B",
"5+	c #6F939C",
"6+	c #324B53",
"7+	c #27424A",
"8+	c #153038",
"9+	c #152C36",
"0+	c #102A35",
"a+	c #051F29",
"b+	c #163139",
"c+	c #5C7980",
"d+	c #74949C",
"e+	c #56757C",
"f+	c #34555A",
"g+	c #132C35",
"h+	c #203741",
"i+	c #48666E",
"j+	c #49646E",
"k+	c #2C464E",
"l+	c #335058",
"m+	c #102B37",
"n+	c #274750",
"o+	c #324D55",
"p+	c #72959D",
"q+	c #5D7A83",
"r+	c #28434C",
"s+	c #2D4951",
"t+	c #324F57",
"u+	c #0C2D38",
"v+	c #224048",
"w+	c #0C2F3A",
"x+	c #01222E",
"y+	c #3D494E",
"z+	c #576164",
"A+	c #91B7BD",
"B+	c #666D6E",
"C+	c #4F6B73",
"D+	c #62838B",
"E+	c #18343C",
"F+	c #06222A",
"G+	c #17333B",
"H+	c #27434A",
"I+	c #3D5A60",
"J+	c #46656A",
"K+	c #3A5862",
"L+	c #1D3E49",
"M+	c #062A36",
"N+	c #022431",
"O+	c #1E363F",
"P+	c #2F474E",
"Q+	c #547178",
"R+	c #223C46",
"S+	c #001821",
"T+	c #426169",
"U+	c #59767E",
"V+	c #4B646C",
"W+	c #48636B",
"X+	c #6C9399",
"Y+	c #203844",
"Z+	c #2A444D",
"`+	c #2C4951",
" @	c #2D4850",
".@	c #1B3841",
"+@	c #042632",
"@@	c #00212D",
"#@	c #001F2D",
"$@	c #1D363E",
"%@	c #233941",
"&@	c #618088",
"*@	c #799FA8",
"=@	c #7AA4A9",
"-@	c #6F959C",
";@	c #7AA2AB",
">@	c #2B434A",
",@	c #3B565D",
"'@	c #264750",
")@	c #113540",
"!@	c #012631",
"~@	c #01232F",
"{@	c #13303A",
"]@	c #274049",
"^@	c #2C444C",
"/@	c #1E3B44",
"(@	c #0E2E38",
"_@	c #0C2A32",
":@	c #153239",
"<@	c #29474E",
"[@	c #3A565E",
"}@	c #2A424A",
"|@	c #5E7B83",
"1@	c #608088",
"2@	c #284047",
"3@	c #2D484F",
"4@	c #364F57",
"5@	c #395159",
"6@	c #1D3741",
"7@	c #06242F",
"8@	c #25383F",
"9@	c #213940",
"0@	c #3E5860",
"a@	c #57737A",
"b@	c #64838A",
"c@	c #7FA6AD",
"d@	c #7AA1A9",
"e@	c #84AAB2",
"f@	c #698B93",
"g@	c #37545C",
"h@	c #26424A",
"i@	c #264149",
"j@	c #14333D",
"k@	c #072A37",
"l@	c #00242F",
"m@	c #0C2C36",
"n@	c #1F3A43",
"o@	c #2B434B",
"p@	c #29414A",
"q@	c #193741",
"r@	c #082A36",
"s@	c #002330",
"t@	c #042633",
"u@	c #12313A",
"v@	c #1F3B43",
"w@	c #37555B",
"x@	c #547578",
"y@	c #486268",
"z@	c #3B555D",
"A@	c #294750",
"B@	c #1F414C",
"C@	c #12333E",
"D@	c #263F47",
"E@	c #1B3B45",
"F@	c #0F303B",
"G@	c #022531",
"H@	c #062934",
"I@	c #1E3840",
"J@	c #4C6C74",
"K@	c #47666D",
"L@	c #6C8F95",
"M@	c #86AAB2",
"N@	c #7A9FA7",
"O@	c #66868E",
"P@	c #72969F",
"Q@	c #6F939B",
"R@	c #13343F",
"S@	c #25414A",
"T@	c #2C454D",
"U@	c #243D46",
"V@	c #13323C",
"W@	c #022632",
"X@	c #042530",
"Y@	c #102D35",
"Z@	c #1C373F",
"`@	c #29424C",
" #	c #304A52",
".#	c #2F4A52",
"+#	c #314E56",
"@#	c #284951",
"##	c #0F323D",
"$#	c #012531",
"%#	c #02242F",
"&#	c #1B3943",
"*#	c #172F3B",
"=#	c #00202C",
"-#	c #052530",
";#	c #2B3C42",
">#	c #66696A",
",#	c #47666C",
"'#	c #516C74",
")#	c #7EA5AD",
"!#	c #779BA3",
"~#	c #90B8C0",
"{#	c #71949C",
"]#	c #7498A0",
"^#	c #334E56",
"/#	c #25444C",
"(#	c #1C3B45",
"_#	c #0D2F39",
":#	c #001E2B",
"<#	c #052230",
"[#	c #17313C",
"}#	c #1D3841",
"|#	c #243D47",
"1#	c #2B474E",
"2#	c #2C4850",
"3#	c #25424B",
"4#	c #163740",
"5#	c #072B36",
"6#	c #01222D",
"7#	c #112E3A",
"8#	c #233B43",
"9#	c #203841",
"0#	c #203F49",
"a#	c #062834",
"b#	c #002531",
"c#	c #123139",
"d#	c #294249",
"e#	c #61838B",
"f#	c #789EA6",
"g#	c #769CA4",
"h#	c #7299A1",
"i#	c #6D9199",
"j#	c #698C94",
"k#	c #6B8F97",
"l#	c #0F252D",
"m#	c #00232D",
"n#	c #001F2B",
"o#	c #01242F",
"p#	c #0A2D37",
"q#	c #1E3B45",
"r#	c #2D4750",
"s#	c #2C4950",
"t#	c #29454C",
"u#	c #203B41",
"v#	c #0B2B34",
"w#	c #00202D",
"x#	c #082731",
"y#	c #102D36",
"z#	c #0E2C38",
"A#	c #12333C",
"B#	c #314C54",
"C#	c #567981",
"D#	c #72979E",
"E#	c #82A8B0",
"F#	c #5B7A82",
"G#	c #7CA4AC",
"H#	c #678890",
"I#	c #28424A",
"J#	c #032733",
"K#	c #10303B",
"L#	c #1F3D47",
"M#	c #324D53",
"N#	c #334C53",
"O#	c #2B424A",
"P#	c #0D2C36",
"Q#	c #052631",
"R#	c #012430",
"S#	c #092934",
"T#	c #283E45",
"U#	c #3D5961",
"V#	c #415D65",
"W#	c #5B7D83",
"X#	c #607D85",
"Y#	c #8FB6BE",
"Z#	c #4E6F73",
"`#	c #6B9199",
" $	c #63868E",
".$	c #70949C",
"+$	c #415E66",
"@$	c #1F3D46",
"#$	c #2E4A52",
"$$	c #324E55",
"%$	c #2F4950",
"&$	c #2E4950",
"*$	c #264049",
"=$	c #17343E",
"-$	c #092935",
";$	c #02232E",
">$	c #0F2A35",
",$	c #394248",
"'$	c #5C5E5E",
")$	c #646B6A",
"!$	c #27444C",
"~$	c #1D373F",
"{$	c #1A333B",
"]$	c #6C8D95",
"^$	c #668991",
"/$	c #6E8F97",
"($	c #6F949C",
"_$	c #324D54",
":$	c #23424A",
"<$	c #1F3B44",
"[$	c #032430",
"}$	c #19323A",
"|$	c #2B3840",
"1$	c #132F37",
"2$	c #031D25",
"3$	c #3A5B63",
"4$	c #73979F",
"5$	c #59777F",
"6$	c #39545C",
"7$	c #3D5860",
"8$	c #63878F",
"9$	c #95BEC5",
"0$	c #4A6B74",
"a$	c #102F39",
"b$	c #0A2D38",
"c$	c #022430",
"d$	c #1A363F",
"e$	c #01232E",
"f$	c #0C2E38",
"g$	c #000000",
"h$	c #030404",
"i$	c #050606",
"j$	c #0F2C34",
"k$	c #0C2830",
"l$	c #3F5A62",
"m$	c #455D64",
"n$	c #395058",
"o$	c #2F4E56",
"p$	c #29434F",
"q$	c #092831",
"r$	c #132F36",
"s$	c #102C34",
"t$	c #062935",
"u$	c #0B0E0E",
"v$	c #010101",
"w$	c #0E1212",
"x$	c #0F2B33",
"y$	c #12313D",
"z$	c #1F3A42",
"A$	c #18333C",
"B$	c #0D2A32",
"C$	c #08282F",
"D$	c #05262E",
"E$	c #0D2C34",
"F$	c #1B363E",
"G$	c #1C3741",
"H$	c #0B2934",
"I$	c #010202",
"J$	c #070909",
"K$	c #040606",
"L$	c #112C34",
"M$	c #122D35",
"N$	c #0A272F",
"O$	c #0A2730",
"P$	c #09252E",
"Q$	c #24414A",
"R$	c #1B353D",
"S$	c #06272F",
"T$	c #123038",
"U$	c #1E3A42",
"V$	c #30454D",
"W$	c #39494F",
"X$	c #505A5E",
"Y$	c #606F6E",
"Z$	c #0C0F0F",
"`$	c #050707",
" %	c #070A0A",
".%	c #0A0E0E",
"+%	c #0C1010",
"@%	c #082832",
"#%	c #042731",
"$%	c #0A2932",
"%%	c #0D2933",
"&%	c #022530",
"*%	c #16323B",
"=%	c #233D46",
"-%	c #2E434B",
";%	c #293C44",
">%	c #273940",
",%	c #323F46",
"'%	c #42494B",
")%	c #060808",
"!%	c #040505",
"~%	c #090C0C",
"{%	c #131919",
"]%	c #002530",
"^%	c #00202E",
"/%	c #344D52",
"(%	c #4B5458",
"_%	c #314145",
":%	c #2D3D45",
"<%	c #0D1111",
"[%	c #101515",
"}%	c #080A0A",
"|%	c #020303",
"1%	c #101616",
"2%	c #10323B",
"3%	c #25434A",
"4%	c #0B0F0F",
"5%	c #18383E",
"6%	c #314D5A",
"7%	c #141A1A",
"8%	c #060909",
"9%	c #131A1A",
"0%	c #1B2424",
"a%	c #0E1313",
"b%	c #192020",
"c%	c #080B0B",
"d%	c #111717",
"e%	c #000101",
"f%	c #0F1414",
"g%	c #1E2828",
"h%	c #0D1212",
"i%	c #4C6464",
". + @ #                                                                                             ",
"$ %                                                                                                 ",
"&                                                                                                   ",
"                                                                                                    ",
"                                                                                                    ",
"                                                                                                    ",
"                                                                                                    ",
"                                                                                                    ",
"                                                                                                    ",
"                      *       =                                             -       ;   > , '   ) ! ",
"                  ~ { ]     ^ /                                 ( _ : <   [ } | 1 2 3 4 5 6 7 8 9 0 ",
"                      a b c d e f             g       h i         j k l m n o p q r s t u v w x y z ",
"                A B C D E F G H I J     K L M N O     P Q R   S     T U V W X Y Z `  ...+.@.#.$.%.&.",
"                *.    =.-.;.>.,.'.).!.~.{.].^./.d   (._.:.<.[.}.|.1.2.3.4.5.6.7.8.9.0.a.b.c.d.e.f.g.",
"                      h.i.j.k.l.m.n.o.p.q.r.s.t.u.v.w.x.y.z.A.B.C.D.E.F.G.H.I.J.K.L.M.N.O.P.Q.R.S.T.",
"                U.V.  W.X.Y.Z.`. +.+++@+#+$+%+&+*+=+-+;+>+,+'+)+!+~+{+]+^+/+(+_+:+<+[+}+|+1+2+3+e.  ",
"    <           4+  5+  6+7+8+9+0+a+b+c+d+e+f+g+h+i+j+k+l+m+n+o+p+q+r+s+t+u+v+[+7.<+w+R._+x+y+z+    ",
"      A+      B+    C+x.D+E+F+G+H+I+J+K+L+M+N+O+P+Q+R+S+T+U+V+W+X+Y+Z+`+ @6+.@+@@@S.#@R.@@          ",
"$@%@&@*@=@-@      ;@j.>.V >@,@] '@)@!@~@{@]@^@/@(@_@:@<@6.[@}@|@1@2@3@4@5@6@R.R.R.7@8@9@            ",
"0@a@b@c@d@e@  f@  <.g@h@i@j@k@l@m@n@o@p@q@r@s@t@u@v@w@x@y@z@A@B@C@D@E@F@G@@@R.1+H@I@                ",
"J@K@L@M@n.N@O@P@  Q@E.7.) R@S@T@U@V@W@R.X@Y@Z@`@ #.#+#@###$#%#&#*#Q.=#1+2+R.-#;#>#                  ",
",#'#)#!#~#V {#]#      ^#/#(#_#s@:#<#[#}#|#1#2#3#4#5#@@6#7#8#9#0#a#2+1+b#Q.a#c#                      ",
"d#e#f#g#h#i#j#k#    l#: m#|+n#o#p#q#r#s#t#u#v#=#w#_+x#y#z#+@1+/+:#2+A#                              ",
"B#C#D#E#E#F#G#    H#I#(+J#K#L#[+M#N#O#$@P#Q#R#2+2+2+2+R.@@w#S#T#                                    ",
"U#V#W#X#Y#Z#`#   $.$+$@$#$$$%$&$*$=$-$o#R.2+2+2+2+2+2+;$>$,$'$)$                                    ",
"!$~${$]$^$/$B#  ($$+.#_$2#:$<$[$1+w#R.2+2+2+2+2+Q.@@1+}$|$                                          ",
"1$2$3$4$5$6$7$8$9$0$a$b$c$m@d$=#2+2+2+2+R.1+=#e$f$                      g$g$h$i$                    ",
"j$k$0 l$m$n$r+o$p$n#%#q$R#r$s$1+s@s@2+2+5#t$                            u$v$w$g$                    ",
"s$s$x${+y$W@n#z$A$x$B$C$D$E$F$<$G$H$                                g$I$J$g$g$K$                    ",
"L$L$M$N$O$s$P$Q$R$S$T$U$w.V$W$X$Y$                                  Z$`$g$ %.%+%                    ",
"@%#%$%%%@%&%1+*%=%^@-%;%>%,%'%                                  )%g$g$!%~%g$K${%                    ",
"s@2+]%^%|+:#s@/%(%_%:%                                          g$<%g$[%}%g$|%1%                    ",
"=#f.Q.2%3%                                                      h$`$g$g$g$I$4%}%                    ",
"5%6%                                                          7%`$!%[%g$8%g$v$ %                    ",
"                                                            9%g$K$!%    u$g$g$|%                    ",
"                                                            0%g$a%g$    g$~%!%[%                    ",
"                                                            b%`$g$)%     %!%g$v$                    ",
"                                                          g$~%u$        .%J$g$~%                    ",
"                                                        g$g$+%|%        g$c%g$!%                    ",
"                                                        g$g$d%e%f%`$I$g$g$g$|%[%                    ",
"                                                        g%`$ %g$g$u$c%c%v$g$g$|%                    ",
"                                                                        h%`$g$`$                    ",
"                                                                        v$+%g$g$                    ",
"                                                                        !%g$g$g$                    ",
"        i%                                                              g$h$4%g$                    ",
"                                                                                                    ",
"                                                                                                    ",
"                                                                                                    ",
"                                                                                                    ",
"                                                                                                    "};
