/* XPM */
static char * icon3_xpm[] = {
"50 50 667 2",
"  	c None",
". 	c #5B6C6E",
"+ 	c #75797F",
"@ 	c #5B7072",
"# 	c #75888D",
"$ 	c #586A6C",
"% 	c #70787B",
"& 	c #707B7F",
"* 	c #6D787A",
"= 	c #1C3940",
"- 	c #71797A",
"; 	c #717B79",
"> 	c #7C8A8E",
", 	c #728185",
"' 	c #6D7378",
") 	c #06232B",
"! 	c #667075",
"~ 	c #6D797E",
"{ 	c #72787C",
"] 	c #5A6266",
"^ 	c #667677",
"/ 	c #6E8A8F",
"( 	c #70969E",
"_ 	c #617B7B",
": 	c #6F7679",
"< 	c #767B7D",
"[ 	c #666E72",
"} 	c #4B5C5E",
"| 	c #486266",
"1 	c #374C53",
"2 	c #001A23",
"3 	c #102C35",
"4 	c #4D727B",
"5 	c #8DB3BA",
"6 	c #4B6A71",
"7 	c #0B272F",
"8 	c #021E26",
"9 	c #48595E",
"0 	c #5E6C70",
"a 	c #677073",
"b 	c #7A9297",
"c 	c #6E939B",
"d 	c #6C9098",
"e 	c #699098",
"f 	c #6C878D",
"g 	c #6E868B",
"h 	c #6D777C",
"i 	c #57656A",
"j 	c #4A5D64",
"k 	c #09242D",
"l 	c #0E2A32",
"m 	c #1A373F",
"n 	c #41636A",
"o 	c #78A0A5",
"p 	c #A9DCE6",
"q 	c #BAEEF8",
"r 	c #B6E8F1",
"s 	c #729DA5",
"t 	c #051F27",
"u 	c #27454D",
"v 	c #41626A",
"w 	c #758991",
"x 	c #68878E",
"y 	c #5B767C",
"z 	c #3B555C",
"A 	c #4C6E76",
"B 	c #69919A",
"C 	c #698D95",
"D 	c #688C94",
"E 	c #678890",
"F 	c #152A33",
"G 	c #102A32",
"H 	c #507078",
"I 	c #34535B",
"J 	c #36555D",
"K 	c #122E36",
"L 	c #17333B",
"M 	c #25424A",
"N 	c #4C6C74",
"O 	c #628890",
"P 	c #6D8E96",
"Q 	c #97BCC3",
"R 	c #91B8BE",
"S 	c #86AAB2",
"T 	c #7A9CA4",
"U 	c #79A2AA",
"V 	c #92BCC4",
"W 	c #658991",
"X 	c #587881",
"Y 	c #6C9299",
"Z 	c #5C7F88",
"` 	c #668C94",
" .	c #5B8089",
"..	c #587981",
"+.	c #658890",
"@.	c #608087",
"#.	c #668990",
"$.	c #5E7F88",
"%.	c #6B8388",
"&.	c #779BA3",
"*.	c #667F84",
"=.	c #769B9D",
"-.	c #405C64",
";.	c #55757D",
">.	c #64878F",
",.	c #7499A1",
"'.	c #55777F",
").	c #62858E",
"!.	c #668991",
"~.	c #506F77",
"{.	c #38545C",
"].	c #7599A1",
"^.	c #5F8088",
"/.	c #55747C",
"(.	c #799FA6",
"_.	c #79A2A6",
":.	c #88ACB5",
"<.	c #8FB3BB",
"[.	c #70949C",
"}.	c #56757D",
"|.	c #63878F",
"1.	c #54767E",
"2.	c #1D3541",
"3.	c #34505A",
"4.	c #597B83",
"5.	c #746F70",
"6.	c #668186",
"7.	c #647679",
"8.	c #50656B",
"9.	c #587075",
"0.	c #658084",
"a.	c #7399A2",
"b.	c #4E6F77",
"c.	c #5A7C84",
"d.	c #6C8F97",
"e.	c #688E94",
"f.	c #86B0B6",
"g.	c #A4CFD8",
"h.	c #87B0B8",
"i.	c #5B7E86",
"j.	c #6F959D",
"k.	c #789DA5",
"l.	c #72969E",
"m.	c #6A8E96",
"n.	c #779CA4",
"o.	c #6D9199",
"p.	c #5F7F87",
"q.	c #5B7A82",
"r.	c #678B93",
"s.	c #5F8189",
"t.	c #334E56",
"u.	c #52727A",
"v.	c #648890",
"w.	c #66878F",
"x.	c #4F6E76",
"y.	c #3E5B63",
"z.	c #45626A",
"A.	c #46646B",
"B.	c #44636D",
"C.	c #1F3741",
"D.	c #507179",
"E.	c #637B7A",
"F.	c #7F8B8D",
"G.	c #6E7C7D",
"H.	c #566E73",
"I.	c #4A5E64",
"J.	c #709399",
"K.	c #779DA5",
"L.	c #6B8E96",
"M.	c #6B9098",
"N.	c #6A8D95",
"O.	c #678A92",
"P.	c #7AA0A8",
"Q.	c #A1CED6",
"R.	c #99C5CD",
"S.	c #5F838B",
"T.	c #6B8F97",
"U.	c #71959D",
"V.	c #6A8F97",
"W.	c #61858D",
"X.	c #85A9B1",
"Y.	c #7498A0",
"Z.	c #668A92",
"`.	c #5E7E86",
" +	c #5B7B83",
".+	c #55767E",
"++	c #35525A",
"@+	c #2B444C",
"#+	c #314951",
"$+	c #264048",
"%+	c #2B434B",
"&+	c #314E55",
"*+	c #2C4850",
"=+	c #1F3840",
"-+	c #2C4950",
";+	c #253F4A",
">+	c #48666E",
",+	c #54757D",
"'+	c #6C757C",
")+	c #678084",
"!+	c #4E6D74",
"~+	c #405D65",
"{+	c #688D95",
"]+	c #7499A0",
"^+	c #7398A0",
"/+	c #51737B",
"(+	c #56777F",
"_+	c #93BFC7",
":+	c #9DCAD2",
"<+	c #789EA6",
"[+	c #6D8F97",
"}+	c #5B7C84",
"|+	c #5C7E86",
"1+	c #60848B",
"2+	c #567880",
"3+	c #597C84",
"4+	c #243E46",
"5+	c #2C4149",
"6+	c #294149",
"7+	c #203B44",
"8+	c #14333D",
"9+	c #082A35",
"0+	c #102B33",
"a+	c #102E37",
"b+	c #0C2830",
"c+	c #3E5A62",
"d+	c #4D6E75",
"e+	c #516E76",
"f+	c #616F72",
"g+	c #3F5D69",
"h+	c #6E8C92",
"i+	c #54747C",
"j+	c #47676F",
"k+	c #476A73",
"l+	c #3E5E69",
"m+	c #3B5860",
"n+	c #223B46",
"o+	c #031D25",
"p+	c #213E46",
"q+	c #0C272F",
"r+	c #648991",
"s+	c #A4D1D9",
"t+	c #9ECCD4",
"u+	c #84ACB4",
"v+	c #6E929A",
"w+	c #49656D",
"x+	c #4B6A72",
"y+	c #57777F",
"z+	c #36515C",
"A+	c #1D3941",
"B+	c #29444C",
"C+	c #0C2D37",
"D+	c #012531",
"E+	c #00202C",
"F+	c #001F2C",
"G+	c #00212E",
"H+	c #002430",
"I+	c #07262F",
"J+	c #1A353D",
"K+	c #435F67",
"L+	c #416069",
"M+	c #2C4A54",
"N+	c #72777C",
"O+	c #809396",
"P+	c #77858A",
"Q+	c #4B6660",
"R+	c #3D5A62",
"S+	c #61838D",
"T+	c #2E4A52",
"U+	c #001821",
"V+	c #0A2530",
"W+	c #143038",
"X+	c #102C34",
"Y+	c #0A262E",
"Z+	c #041F27",
"`+	c #33515A",
" @	c #74979F",
".@	c #86AFB7",
"+@	c #6C9199",
"@@	c #5C7F87",
"#@	c #3D5B63",
"$@	c #213941",
"%@	c #0D2F37",
"&@	c #6D9098",
"*@	c #769AA2",
"=@	c #5A7B83",
"-@	c #4A6A72",
";@	c #0A2733",
">@	c #001E2B",
",@	c #1C363E",
"'@	c #314C54",
")@	c #072B36",
"!@	c #00212D",
"~@	c #042732",
"{@	c #0B2B35",
"]@	c #122E37",
"^@	c #18323A",
"/@	c #20363D",
"(@	c #2B464D",
"_@	c #13313A",
":@	c #001F2B",
"<@	c #001D2A",
"[@	c #607572",
"}@	c #6D838A",
"|@	c #7DA0AA",
"1@	c #758E93",
"2@	c #5C767A",
"3@	c #4B6971",
"4@	c #4D6C74",
"5@	c #4E6D75",
"6@	c #132B32",
"7@	c #0C2930",
"8@	c #0D2931",
"9@	c #132E37",
"0@	c #17313B",
"a@	c #203843",
"b@	c #253D45",
"c@	c #55737B",
"d@	c #436067",
"e@	c #243C45",
"f@	c #072630",
"g@	c #03222B",
"h@	c #0A222A",
"i@	c #6F939B",
"j@	c #223B43",
"k@	c #1C3B44",
"l@	c #24414A",
"m@	c #2D4951",
"n@	c #304B52",
"o@	c #213B44",
"p@	c #1D3740",
"q@	c #213D45",
"r@	c #2B444B",
"s@	c #2D474E",
"t@	c #2D474F",
"u@	c #25414A",
"v@	c #13333D",
"w@	c #00242F",
"x@	c #00222F",
"y@	c #566665",
"z@	c #5D6870",
"A@	c #2A424A",
"B@	c #3B5159",
"C@	c #617B83",
"D@	c #54737A",
"E@	c #83A9AF",
"F@	c #82A7AF",
"G@	c #16303A",
"H@	c #1A333E",
"I@	c #1F3743",
"J@	c #243B47",
"K@	c #2B414C",
"L@	c #2E454D",
"M@	c #273F47",
"N@	c #26454E",
"O@	c #13343E",
"P@	c #042834",
"Q@	c #0E303B",
"R@	c #2A474F",
"S@	c #587880",
"T@	c #37575F",
"U@	c #18333B",
"V@	c #1C3840",
"W@	c #304C54",
"X@	c #2B464F",
"Y@	c #304951",
"Z@	c #1F3E47",
"`@	c #0F313C",
" #	c #022632",
".#	c #001D2B",
"+#	c #0A2E36",
"@#	c #2A454D",
"##	c #3E5961",
"$#	c #56767E",
"%#	c #3F5B64",
"&#	c #46646C",
"*#	c #8DB9C1",
"=#	c #4B686F",
"-#	c #324E56",
";#	c #253C48",
">#	c #273F4A",
",#	c #253E46",
"'#	c #19363E",
")#	c #092A35",
"!#	c #062834",
"~#	c #15323C",
"{#	c #264149",
"]#	c #193944",
"^#	c #12343E",
"/#	c #0E2830",
"(#	c #112E36",
"_#	c #182F37",
":#	c #203941",
"<#	c #2D4A52",
"[#	c #2E4B53",
"}#	c #354E56",
"|#	c #223941",
"1#	c #07272F",
"2#	c #00222E",
"3#	c #012430",
"4#	c #142D36",
"5#	c #464E54",
"6#	c #122A33",
"7#	c #142C34",
"8#	c #2A434B",
"9#	c #3D5961",
"0#	c #3C575F",
"a#	c #345058",
"b#	c #425E67",
"c#	c #6E9199",
"d#	c #44626A",
"e#	c #0A2631",
"f#	c #092933",
"g#	c #132F3A",
"h#	c #092B36",
"i#	c #062832",
"j#	c #13333C",
"k#	c #203E47",
"l#	c #2C454D",
"m#	c #28444C",
"n#	c #1C3841",
"o#	c #0C2D38",
"p#	c #00202D",
"q#	c #00232F",
"r#	c #122F37",
"s#	c #172E36",
"t#	c #1C373F",
"u#	c #29454D",
"v#	c #2A464E",
"w#	c #2B474F",
"x#	c #19363F",
"y#	c #052732",
"z#	c #002330",
"A#	c #112D35",
"B#	c #2B353B",
"C#	c #1F373F",
"D#	c #223A42",
"E#	c #39555D",
"F#	c #2E4952",
"G#	c #6F949C",
"H#	c #6E949B",
"I#	c #4C6B74",
"J#	c #0D2B34",
"K#	c #092C38",
"L#	c #193943",
"M#	c #27444D",
"N#	c #2C484F",
"O#	c #234048",
"P#	c #12333D",
"Q#	c #052730",
"R#	c #1E3840",
"S#	c #2F4B53",
"T#	c #405E66",
"U#	c #415E65",
"V#	c #203B43",
"W#	c #0C2B34",
"X#	c #00212C",
"Y#	c #032530",
"Z#	c #273D44",
"`#	c #535F5F",
" $	c #233A42",
".$	c #3D575F",
"+$	c #58777F",
"@$	c #64868E",
"#$	c #81A7AF",
"$$	c #6D9397",
"%$	c #3A555D",
"&$	c #688D94",
"*$	c #749A9E",
"=$	c #45626B",
"-$	c #2A474E",
";$	c #2B4850",
">$	c #243E45",
",$	c #19333B",
"'$	c #072730",
")$	c #04242C",
"!$	c #00232E",
"~$	c #163641",
"{$	c #213F48",
"]$	c #334F57",
"^$	c #344F56",
"/$	c #355761",
"($	c #183A44",
"_$	c #022531",
":$	c #324247",
"<$	c #324D55",
"[$	c #324F57",
"}$	c #2B464E",
"|$	c #3C5860",
"1$	c #4F6F77",
"2$	c #4D6D75",
"3$	c #769BA3",
"4$	c #84A8B0",
"5$	c #749AA2",
"6$	c #49646D",
"7$	c #223D45",
"8$	c #223B42",
"9$	c #1B323A",
"0$	c #0C2931",
"a$	c #06262F",
"b$	c #02252F",
"c$	c #00232D",
"d$	c #01232D",
"e$	c #032732",
"f$	c #10313C",
"g$	c #29454E",
"h$	c #314D54",
"i$	c #365158",
"j$	c #224048",
"k$	c #15353F",
"l$	c #092C37",
"m$	c #001C28",
"n$	c #0D2C36",
"o$	c #253A40",
"p$	c #535A5F",
"q$	c #7D7878",
"r$	c #254149",
"s$	c #4C6A72",
"t$	c #517179",
"u$	c #60848C",
"v$	c #577880",
"w$	c #7A9DA5",
"x$	c #425E66",
"y$	c #1C3740",
"z$	c #08232E",
"A$	c #022530",
"B$	c #193841",
"C$	c #2E4A51",
"D$	c #334E55",
"E$	c #304B53",
"F$	c #1A3943",
"G$	c #0E303A",
"H$	c #001F2D",
"I$	c #1A323A",
"J$	c #3F5C64",
"K$	c #6E8F97",
"L$	c #597981",
"M$	c #3F5E66",
"N$	c #597A82",
"O$	c #59777F",
"P$	c #2B454D",
"Q$	c #001927",
"R$	c #052833",
"S$	c #11323D",
"T$	c #1F3D47",
"U$	c #324D54",
"V$	c #13333E",
"W$	c #072A35",
"X$	c #0C2F38",
"Y$	c #213840",
"Z$	c #3A5A62",
"`$	c #88AFB7",
" %	c #3E5C64",
".%	c #416168",
"+%	c #638890",
"@%	c #365059",
"#%	c #2D464F",
"$%	c #587A82",
"%%	c #527078",
"&%	c #4A6971",
"*%	c #193641",
"=%	c #26434C",
"-%	c #2F4A52",
";%	c #344E56",
">%	c #25424B",
",%	c #193942",
"'%	c #0B2D38",
")%	c #062A34",
"!%	c #62838B",
"~%	c #9CC8D0",
"{%	c #233C48",
"]%	c #65878E",
"^%	c #1C3440",
"/%	c #3C5A62",
"(%	c #27424A",
"_%	c #1E3C46",
":%	c #0E1412",
"<%	c #020302",
"[%	c #000000",
"}%	c #0D1312",
"|%	c #060A09",
"1%	c #62868E",
"2%	c #7BA2AA",
"3%	c #53747C",
"4%	c #6B8D96",
"5%	c #2B474E",
"6%	c #65868E",
"7%	c #799FA7",
"8%	c #496A72",
"9%	c #1F3C45",
"0%	c #163640",
"a%	c #0A2C37",
"b%	c #001E2C",
"c%	c #090E0D",
"d%	c #000101",
"e%	c #060808",
"f%	c #0A100E",
"g%	c #040605",
"h%	c #050707",
"i%	c #6D929A",
"j%	c #61838B",
"k%	c #2D444C",
"l%	c #3B575F",
"m%	c #3F616A",
"n%	c #20454F",
"o%	c #062935",
"p%	c #022631",
"q%	c #204244",
"r%	c #030504",
"s%	c #71939A",
"t%	c #426169",
"u%	c #446168",
"v%	c #435D65",
"w%	c #446169",
"x%	c #406069",
"y%	c #11303A",
"z%	c #0B2E39",
"A%	c #001825",
"B%	c #001B28",
"C%	c #101816",
"D%	c #0D1412",
"E%	c #254751",
"F%	c #08252D",
"G%	c #011F2A",
"H%	c #032531",
"I%	c #012632",
"J%	c #001C29",
"K%	c #0D2B35",
"L%	c #072632",
"M%	c #052733",
"N%	c #0B100F",
"O%	c #001926",
"P%	c #062934",
"Q%	c #213843",
"R%	c #273B43",
"S%	c #2A3A41",
"T%	c #142E38",
"U%	c #32434B",
"V%	c #37454C",
"W%	c #364549",
"X%	c #374348",
"Y%	c #050706",
"Z%	c #010101",
"`%	c #5A6B67",
" &	c #626667",
".&	c #636B68",
"+&	c #16211E",
"@&	c #030404",
"#&	c #070B0A",
"$&	c #080C0B",
"%&	c #0D1311",
"&&	c #0D1413",
"*&	c #0A0F0E",
"=&	c #0C1211",
"-&	c #020303",
";&	c #070A09",
">&	c #010202",
",&	c #040606",
"'&	c #060908",
")&	c #060909",
"!&	c #0C1010",
"~&	c #151D1C",
"{&	c #101916",
"]&	c #161F1E",
"^&	c #101716",
"/&	c #040505",
"(&	c #111A18",
"                                                                                                    ",
"                                                                                                    ",
"                                                                                                    ",
"                                                                                                    ",
"                        .                                                                           ",
"            +           @ #       $ %                                                               ",
"              & *         =       -                                       ;       >         , '   ) ",
"              ! ~   {     ]   ^   / ( _                             : < [ }     | 1 2 3 4 5 6 2 7 8 ",
"                      9   0 a b c d e f                       g h i j       k l m n o p q r s t u v ",
"                    w x y z A B C D E                 F G       H I J K L M N O P Q R S T U V W X Y ",
"                    Z `  ...+.@.#.$.%.&.  *.  =.    -.;.>.,.'.).W !.~.{.].^./.(._.:.<.[.}.|.1.2.3.4.",
"                  5.  6.7.8.9.0.a.b.c.d.  e.f.g.h.i.j.k.l.m.n.o.[.D p.q.r.s.t.u.v.w.x.y.z.~.A.B.C.D.",
"                    E.F.G.H.I.J.K.L.M.N.O.C P.Q.R.S.T.U.V.W.X.Y.U.Z.`. +.+++@+#+@+$+%+&+*+=+-+;+>+,+",
"                      '+)+!+~+{+]+^+O./+(+|._+:+:+<+[.].[+}+n.U.[.|+}.1+2+3+4+5+6+7+8+9+0+a+b+c+d+e+",
"                  f+g g+h+i+j+k+l+m+n+o+p+q+r+s+t+u+v+d w+x+c d W y+(+z+A+d.B+C+D+E+F+G+H+I+J+K+L+M+",
"              N+O+P+Q+R+S+^.T+U+V+W+X+X+Y+Z+`+ @.@+@@@#@$@%@&@*@=@-@>+;@>@,@'@)@!@~@{@]@^@/@(@_@:@<@",
"          [@}@  |@1@2@3@4@+.5@6@7@8@X+9@0@L a@b@c@d@e@f@g@h@!.i@t.0+j@k@l@m@n@o@p@q@r@s@t@u@v@w@H+x@",
"        y@z@A@B@C@D@E@F@v.T.=@%+G@H@I@J@K@L@M@N@O@P@D+Q@R@S@W.T@U@K V@&+W@*+X@Y@*+T+Z@`@ #!@F+.#H++#",
"            @###$#%#&#*#m...=#-#;#>#,#,#'#)#H+!#~#{#*+l@]#^#G /#(#_#:#<#W@W@[#}#|#1#E+2#H+3#4#5#    ",
"    6#7#8#  z.9#0#a#b#c#M.d#e#f#g#h#3#i#j#k#l#m#n#o#H+p#p#q#r#s#t#u#m@v#T+W@w#x#y#H+z#F+<@A#B#      ",
"  C#D#8#}.x.##E#m+F#~.G#H#I#J#!@K#L#M#N#O#P#~@!@!@q#H+q#p#p#Q#R#m#S#W@T#U#V#W#X#z#H+Y#Z#`#          ",
" $@+@+.$+$-.@$#$$$%$y.&$*$=$-$;$(@>$,$'$)$!$z#H+G+E+q#h#~${$S#]$'@^$#@/$($_$q#x@!@q#:$              ",
"<$[$}$|$1$c+2$3$4$&#y+5$6$7$8$9$0$a$Y#H+b$c$d$e$f$k@g$h$i$<$m@j$k$l$2#m$E+H+H+n$o$p$q$              ",
"r$w#'@s$t$-#S#4@u$v$w$x$J+y$z$A$x@p#E+q#l$B$M C$D$^$E$M#F$G$ #p#p#q#H+H+x@H$p#I$                    ",
"v#w#J$K$L$7$M$N$y.O$Y.P$d@T@Q$G+R$S$T$v#U$^$<$w#{$V$W$2#E+2#H+q#H+.#q#p#X$                          ",
"Y$Z$s.`$ %7$.%+%@%#%$%%%v.&%*%=%-%;%;%-%>%,%'%D+p#!@q#H+H+H+p#)%G+                                  ",
"!%S.M.~%w+{%]%@@&+^%1$n./%(%^$U$v#_%S$R$G+p#2#H+H+H+H+_$x@        :%<%[%[%[%[%}%|%                  ",
"u.1%W 2%6+3%4% %5%w#6%7%8%9%0%a%q#p#!@z#H+q#b%q#q#H$              c%[%d%e%[%f%g%h%                  ",
"1%i%d.j%s.^+O$k%l%D.m%n%o%G+p#x@H+H+p#x@p%p%q%                [%r%[%[%        <%[%[%[%              ",
"s%`.t%u%v%w%x%y%z%!@A%B%q#z#q#.#q#p#                            }%[%C%        D%[%[%C%              ",
"E%K#F%G%H%I%J%B%<@D+K%L%G+e$M%                                                [%[%|%N%              ",
"O%G+P%Q%R%S%T%U%V%W%X%                                                        [%Y%g%Z%              ",
"    `% &      .&                                                              Z%f%[%[%              ",
"                                                                        +&[%|%[%[%[%                ",
"                                                                      [%[%@&h%[%d%                  ",
"                                                                              [%#&$&[%              ",
"                                                                              [%%&[%&&              ",
"                                                                              [%[%[%h%              ",
"                                                                              [%Z%Z%*&              ",
"                                                                              Z%=&-&;&              ",
"                                                                              %&d%[%[%              ",
"                                                              >&[%[%[%        r%[%,&-&              ",
"                                                                %&e%'&        )&!&~&{&              ",
"                                                                  ]&^&#&[%Z%g%/&Z%                  ",
"                                                                    g%f%[%(&[%[%[%                  ",
"                                                                                                    ",
"                                                                                                    ",
"                                                                                                    ",
"                                                                                                    ",
"                                                                                                    "};

