/* XPM */
static char * icon2_xpm[] = {
"50 44 322 2",
"  	c None",
". 	c #2E4646",
"+ 	c #49565A",
"@ 	c #414B4B",
"# 	c #1C2323",
"$ 	c #0D1A1B",
"% 	c #051313",
"& 	c #202E31",
"* 	c #2B4045",
"= 	c #496168",
"- 	c #717E7E",
"; 	c #5D6463",
"> 	c #4A5151",
", 	c #343C3C",
"' 	c #151F1F",
") 	c #000606",
"! 	c #000202",
"~ 	c #050F10",
"{ 	c #121D1E",
"] 	c #314142",
"^ 	c #506B6A",
"/ 	c #758284",
"( 	c #6B7575",
"_ 	c #505B5B",
": 	c #3B4545",
"< 	c #333C3C",
"[ 	c #0B1313",
"} 	c #030B0B",
"| 	c #050D0D",
"1 	c #000505",
"2 	c #131B1C",
"3 	c #3A4546",
"4 	c #465E63",
"5 	c #243030",
"6 	c #111D1D",
"7 	c #1A2A2C",
"8 	c #283A3D",
"9 	c #6E7879",
"0 	c #707C7C",
"a 	c #637070",
"b 	c #495151",
"c 	c #3C4343",
"d 	c #3A4242",
"e 	c #111919",
"f 	c #071010",
"g 	c #000808",
"h 	c #040C0C",
"i 	c #090F0F",
"j 	c #242928",
"k 	c #364749",
"l 	c #5D777C",
"m 	c #434D4D",
"n 	c #0F1B1B",
"o 	c #060A0A",
"p 	c #070E0E",
"q 	c #182726",
"r 	c #627171",
"s 	c #687475",
"t 	c #6C7978",
"u 	c #616A6A",
"v 	c #454E4E",
"w 	c #434A4A",
"x 	c #323C3C",
"y 	c #252E2E",
"z 	c #020C0C",
"A 	c #030A0A",
"B 	c #030C0C",
"C 	c #020A0A",
"D 	c #010909",
"E 	c #060D0D",
"F 	c #252F30",
"G 	c #4E5857",
"H 	c #4C5454",
"I 	c #242929",
"J 	c #010101",
"K 	c #132024",
"L 	c #314949",
"M 	c #586A6D",
"N 	c #656D6D",
"O 	c #677373",
"P 	c #626D6E",
"Q 	c #4E5555",
"R 	c #374343",
"S 	c #3B4444",
"T 	c #2C3636",
"U 	c #0A1212",
"V 	c #060F0F",
"W 	c #020909",
"X 	c #030909",
"Y 	c #1C2424",
"Z 	c #454D4D",
"` 	c #414949",
" .	c #363E3E",
"..	c #080D0D",
"+.	c #020908",
"@.	c #2B3D40",
"#.	c #566262",
"$.	c #5D6565",
"%.	c #636F6E",
"&.	c #606A6A",
"*.	c #535D5D",
"=.	c #333E3E",
"-.	c #3A4343",
";.	c #293535",
">.	c #202A2A",
",.	c #010C0C",
"'.	c #0C1414",
").	c #424B4B",
"!.	c #3C4848",
"~.	c #353D3D",
"{.	c #090E0E",
"].	c #000101",
"^.	c #233639",
"/.	c #536468",
"(.	c #576060",
"_.	c #5F6867",
":.	c #616969",
"<.	c #575F5F",
"[.	c #3F4646",
"}.	c #303A3A",
"|.	c #081010",
"1.	c #0C1818",
"2.	c #141E1E",
"3.	c #000404",
"4.	c #101F20",
"5.	c #535A5B",
"6.	c #585F5E",
"7.	c #5C6464",
"8.	c #5A6262",
"9.	c #4D5555",
"0.	c #323A3A",
"a.	c #3D4545",
"b.	c #313939",
"c.	c #1F2727",
"d.	c #414D4D",
"e.	c #354141",
"f.	c #212B2B",
"g.	c #020707",
"h.	c #4E5C5F",
"i.	c #575D5D",
"j.	c #5D6464",
"k.	c #505858",
"l.	c #3B4343",
"m.	c #222A2A",
"n.	c #373E3E",
"o.	c #394646",
"p.	c #2A3232",
"q.	c #070F0F",
"r.	c #000000",
"s.	c #4C5B5A",
"t.	c #515959",
"u.	c #586060",
"v.	c #303838",
"w.	c #262E2E",
"x.	c #3F4C4C",
"y.	c #0B1616",
"z.	c #000504",
"A.	c #0F1B1D",
"B.	c #445757",
"C.	c #4B5759",
"D.	c #515858",
"E.	c #575E5E",
"F.	c #3C4444",
"G.	c #131E1E",
"H.	c #1A2323",
"I.	c #2C3939",
"J.	c #121C1C",
"K.	c #010808",
"L.	c #010606",
"M.	c #1A292D",
"N.	c #435455",
"O.	c #494F4F",
"P.	c #505757",
"Q.	c #555D5D",
"R.	c #545B5B",
"S.	c #464F4F",
"T.	c #394141",
"U.	c #202828",
"V.	c #152121",
"W.	c #303939",
"X.	c #151D1D",
"Y.	c #040A0A",
"Z.	c #000707",
"`.	c #000403",
" +	c #020607",
".+	c #172527",
"++	c #404F51",
"@+	c #434E4F",
"#+	c #484F4F",
"$+	c #495050",
"%+	c #4E5656",
"&+	c #404848",
"*+	c #2A3333",
"=+	c #151B1B",
"-+	c #050909",
";+	c #020A09",
">+	c #000607",
",+	c #0B1315",
"'+	c #405153",
")+	c #3F4A4B",
"!+	c #434949",
"~+	c #474F4F",
"{+	c #2A2E2E",
"]+	c #1B2222",
"^+	c #0E1313",
"/+	c #060C0C",
"(+	c #0F181A",
"_+	c #233138",
":+	c #384343",
"<+	c #3B4342",
"[+	c #454C4C",
"}+	c #474E4E",
"|+	c #464E4E",
"1+	c #434B4B",
"2+	c #151C1C",
"3+	c #010A0A",
"4+	c #000506",
"5+	c #3D5053",
"6+	c #384142",
"7+	c #3C4342",
"8+	c #414848",
"9+	c #444C4C",
"0+	c #3F4747",
"a+	c #373F3F",
"b+	c #293232",
"c+	c #1A2525",
"d+	c #0F1313",
"e+	c #020907",
"f+	c #39474B",
"g+	c #3E4646",
"h+	c #081111",
"i+	c #081314",
"j+	c #182223",
"k+	c #354243",
"l+	c #363F3E",
"m+	c #323F3F",
"n+	c #273333",
"o+	c #192323",
"p+	c #0D1111",
"q+	c #010404",
"r+	c #213133",
"s+	c #394D4F",
"t+	c #373D3C",
"u+	c #384040",
"v+	c #3A4140",
"w+	c #3C4545",
"x+	c #2E3636",
"y+	c #1E2626",
"z+	c #141818",
"A+	c #080F0F",
"B+	c #000605",
"C+	c #152123",
"D+	c #344547",
"E+	c #354142",
"F+	c #373B3A",
"G+	c #3A4444",
"H+	c #374140",
"I+	c #232C2C",
"J+	c #141C1C",
"K+	c #060E0E",
"L+	c #131D1E",
"M+	c #394649",
"N+	c #2C3737",
"O+	c #363F3F",
"P+	c #383F3F",
"Q+	c #363D3D",
"R+	c #293131",
"S+	c #182020",
"T+	c #0D1212",
"U+	c #010302",
"V+	c #19272B",
"W+	c #2C3D3E",
"X+	c #343F40",
"Y+	c #2E3535",
"Z+	c #1F2929",
"`+	c #101A1A",
" @	c #040706",
".@	c #0F1719",
"+@	c #2E3C3B",
"@@	c #2D3738",
"#@	c #353B3B",
"$@	c #252D2D",
"%@	c #121D1D",
"&@	c #000100",
"*@	c #182324",
"=@	c #324042",
"-@	c #2E3736",
";@	c #2D3736",
">@	c #273030",
",@	c #1B2121",
"'@	c #0B1212",
")@	c #000303",
"!@	c #101E1F",
"~@	c #2A3637",
"{@	c #2A3130",
"]@	c #2A3131",
"^@	c #212929",
"/@	c #0C1312",
"(@	c #2B3939",
"_@	c #2C3A39",
":@	c #232B2A",
"<@	c #171D1D",
"[@	c #010505",
"}@	c #142123",
"|@	c #2F4548",
"1@	c #2D3B3D",
"2@	c #232D2D",
"3@	c #1A2222",
"4@	c #071110",
"5@	c #071111",
"6@	c #2F3F43",
"7@	c #2D3637",
"8@	c #090B0B",
"9@	c #2F3938",
"0@	c #202625",
"a@	c #141A18",
"b@	c #111819",
"c@	c #2B3A3A",
"d@	c #141C1E",
"e@	c #29393D",
"f@	c #242F31",
"g@	c #24363A",
"                                                                                                    ",
"                                                                                                    ",
"              .                                                                                     ",
"        + @ # $ % & * =                                                                             ",
"      - ; > , ' ) ! ~ { ]                                                                           ",
"    ^ / ( _ : < [ } ) | 1 2 3 4       5 6 7 8                                                       ",
"      9 0 a b c d e f g h ! i j k l   m n o p q                                                     ",
"      r s t u v w x y z A B C D E F G H v I E J K L                                                 ",
"        M N O P Q R S T U V W h g X Y Z `  ...) +.@.                                                ",
"          #.$.%.&.*.=.-.;.>.,.C } C '.).!.~.{.g ].^.                                                ",
"            /.(._.:.<.).~.[.}.h |.g 1.R @  .2.3.! 4.                                                ",
"                5.6.7.8.9.0.a.b.c.C [ < d.e.f.1 g g.                                                ",
"                  h.i.j.8.k.l.~.0.m.h n.d.o.p.q.) r.                                                ",
"                    s.t.6.u.u.b v.~.q.w.x x.}.y.1 z.A.                                              ",
"                      B.C.D.E.u.9.F.y G.H.I.e.J.K.g L.M.                                            ",
"                          N.O.P.Q.R.S.T.U.V.W.X.Y.Z.`. +.+                                          ",
"                            ++@+#+$+%+b &+*+>.=+-+} D ;+>+,+                                        ",
"                                '+)+!+~+9.Z T.{+]+^+q./+D r.(+_+                                    ",
"                                    :+<+[+}+|+1+< U.2+f A 3+4+~                                     ",
"                                      5+6+7+8+9+0+a+b+c+d+p A Z.e+                                  ",
"                                          f+T.l.g+&+a.0.m.=+h+W 3.i+j+                              ",
"                                              k+l+c a.F.m+n+o+p+E K.q+r+                            ",
"                                                s+t+u+v+w+l.x+y+z+A+1 B+C+                          ",
"                                                    D+E+F+G+H+b.I+J+K+A D L+                        ",
"                                                        M+N+O+P+Q+R+S+T+D U+V+                      ",
"                          r.r.r.r.r.r.r.r.                  W+X+P+, Y+Z+`+ @g .@                    ",
"                          r.r.r.r.r.r.r.r.                      +@@@#@v.$@%@V &@*@                  ",
"                      r.r.r.r.        r.r.r.r.                      =@-@;@>@,@'@)@!@                ",
"                        r.r.r.        r.r.r.r.                          ~@{@]@^@'.h /@              ",
"                                      r.r.r.r.                              (@_@:@<@[@}@|@          ",
"                                      r.r.r.r.                                  1@2@3@4@5@          ",
"                                      r.r.r.r.                                    6@7@Z+8@2         ",
"                                r.r.r.r.r.r.                                          9@0@a@b@      ",
"                              r.r.r.r.r.r.                                                c@3@d@    ",
"                                      r.r.r.r.                                                e@f@  ",
"                                      r.r.r.r.                                                    g@",
"                                      r.r.r.r.                                                      ",
"                                      r.r.r.r.                                                      ",
"                                      r.r.r.r.                                                      ",
"                                      r.r.r.r.                                                      ",
"                      r.r.r.r.        r.r.r.r.                                                      ",
"                        r.r.r.        r.r.r.r.                                                      ",
"                          r.r.r.r.r.r.r.r.                                                          ",
"                            r.r.r.r.r.r.r.                                                          "};

