/* XPM */
static const char * icon5_xpm[] = {
"50 50 322 2",
"  	c None",
". 	c #334E56",
"+ 	c #18343C",
"@ 	c #122F38",
"# 	c #90B7BF",
"$ 	c #8CB7BF",
"% 	c #1E3940",
"& 	c #193740",
"* 	c #07232E",
"= 	c #05232E",
"- 	c #7EA3AB",
"; 	c #76A0A8",
"> 	c #66868E",
", 	c #132F38",
"' 	c #405C63",
") 	c #2B4E59",
"! 	c #001F2C",
"~ 	c #3A4347",
"{ 	c #122D35",
"] 	c #19353D",
"^ 	c #36525A",
"/ 	c #6D929A",
"( 	c #5F848C",
"_ 	c #3B5860",
": 	c #24424B",
"< 	c #0C2A32",
"[ 	c #112E39",
"} 	c #1F414B",
"| 	c #00232F",
"1 	c #092A35",
"2 	c #314D54",
"3 	c #37535B",
"4 	c #4B6A70",
"5 	c #4F7079",
"6 	c #48666E",
"7 	c #345158",
"8 	c #17333C",
"9 	c #042631",
"0 	c #00212D",
"a 	c #01222D",
"b 	c #002430",
"c 	c #001D2A",
"d 	c #19323A",
"e 	c #3C5F67",
"f 	c #0E2E38",
"g 	c #365057",
"h 	c #48646C",
"i 	c #72959B",
"j 	c #597B7F",
"k 	c #48676F",
"l 	c #163640",
"m 	c #052632",
"n 	c #1B3A42",
"o 	c #0D2D37",
"p 	c #002330",
"q 	c #87ACB4",
"r 	c #81AAB2",
"s 	c #628A92",
"t 	c #213F48",
"u 	c #5F7B83",
"v 	c #0E282F",
"w 	c #2A454D",
"x 	c #54747E",
"y 	c #48656C",
"z 	c #3C565E",
"A 	c #28454D",
"B 	c #304C54",
"C 	c #15353E",
"D 	c #3A5259",
"E 	c #3C5860",
"F 	c #6D939B",
"G 	c #53747C",
"H 	c #2D4951",
"I 	c #1F3E47",
"J 	c #0A2C37",
"K 	c #19373E",
"L 	c #39545C",
"M 	c #365159",
"N 	c #29454E",
"O 	c #012531",
"P 	c #0B2A35",
"Q 	c #38555D",
"R 	c #102E38",
"S 	c #0B2D38",
"T 	c #234049",
"U 	c #28444D",
"V 	c #1C3844",
"W 	c #223A43",
"X 	c #13323D",
"Y 	c #1A333D",
"Z 	c #214047",
"` 	c #324E56",
" .	c #4D6E74",
"..	c #2A464E",
"+.	c #355159",
"@.	c #38525A",
"#.	c #032631",
"$.	c #072A35",
"%.	c #2E4C55",
"&.	c #365158",
"*.	c #18363E",
"=.	c #0A2832",
"-.	c #152F3A",
";.	c #0F2D35",
">.	c #001B28",
",.	c #233A42",
"'.	c #18333B",
").	c #1B363D",
"!.	c #4E686C",
"~.	c #63838A",
"{.	c #48636B",
"].	c #65858E",
"^.	c #26424A",
"/.	c #2C4850",
"(.	c #314E56",
"_.	c #2F4850",
":.	c #1F3D46",
"<.	c #2F4A52",
"[.	c #374F57",
"}.	c #223B43",
"|.	c #1A333B",
"1.	c #16353E",
"2.	c #1D3740",
"3.	c #254149",
"4.	c #244149",
"5.	c #19353E",
"6.	c #233E46",
"7.	c #38545C",
"8.	c #2F4D55",
"9.	c #5B7B83",
"0.	c #29454D",
"a.	c #324E55",
"b.	c #29464E",
"c.	c #1D363F",
"d.	c #213A42",
"e.	c #052834",
"f.	c #00212E",
"g.	c #0B2B36",
"h.	c #606263",
"i.	c #233F47",
"j.	c #1B353F",
"k.	c #0A272F",
"l.	c #052935",
"m.	c #345058",
"n.	c #2B474F",
"o.	c #355259",
"p.	c #47656A",
"q.	c #517078",
"r.	c #263F47",
"s.	c #2E4A52",
"t.	c #1C3841",
"u.	c #092732",
"v.	c #062631",
"w.	c #032632",
"x.	c #1D3441",
"y.	c #70939C",
"z.	c #45646C",
"A.	c #446169",
"B.	c #37515D",
"C.	c #64828A",
"D.	c #28434B",
"E.	c #26434A",
"F.	c #4B6A72",
"G.	c #3C575F",
"H.	c #324F57",
"I.	c #52737B",
"J.	c #07222B",
"K.	c #02232E",
"L.	c #012430",
"M.	c #4A6972",
"N.	c #6B8B8F",
"O.	c #698D93",
"P.	c #8EB5BD",
"Q.	c #7EA2AA",
"R.	c #7EA1A9",
"S.	c #7A9DA6",
"T.	c #143038",
"U.	c #46656D",
"V.	c #577981",
"W.	c #5D7D86",
"X.	c #314C54",
"Y.	c #4E6B73",
"Z.	c #62828A",
"`.	c #032530",
" +	c #64848B",
".+	c #48646D",
"++	c #749AA2",
"@+	c #4F6D73",
"#+	c #4D6C73",
"$+	c #63868E",
"%+	c #44626A",
"&+	c #72969E",
"*+	c #7B9DA3",
"=+	c #37525A",
"-+	c #2E4950",
";+	c #43636B",
">+	c #354F57",
",+	c #66878B",
"'+	c #5C7B83",
")+	c #28434C",
"!+	c #2C474F",
"~+	c #253F47",
"{+	c #092731",
"]+	c #15323C",
"^+	c #506C74",
"/+	c #314B54",
"(+	c #162E37",
"_+	c #19363E",
":+	c #0A262E",
"<+	c #66868F",
"[+	c #5A777D",
"}+	c #2F4B52",
"|+	c #193841",
"1+	c #022531",
"2+	c #4E6B6F",
"3+	c #46676B",
"4+	c #1B3E48",
"5+	c #00202C",
"6+	c #2F4B53",
"7+	c #18353E",
"8+	c #022430",
"9+	c #283C43",
"0+	c #597780",
"a+	c #385159",
"b+	c #1B333B",
"c+	c #0E2830",
"d+	c #132F37",
"e+	c #3D5860",
"f+	c #415D65",
"g+	c #334F57",
"h+	c #13323B",
"i+	c #042733",
"j+	c #3C5C63",
"k+	c #517277",
"l+	c #21454D",
"m+	c #11313B",
"n+	c #1E3D46",
"o+	c #092B36",
"p+	c #00222E",
"q+	c #152A33",
"r+	c #45626A",
"s+	c #3E5A62",
"t+	c #253E46",
"u+	c #0C272F",
"v+	c #122F37",
"w+	c #1F3840",
"x+	c #39555D",
"y+	c #3B565E",
"z+	c #304C53",
"A+	c #183741",
"B+	c #062935",
"C+	c #22444D",
"D+	c #10303B",
"E+	c #082B36",
"F+	c #00202D",
"G+	c #4E6F77",
"H+	c #507078",
"I+	c #6C8B93",
"J+	c #334B53",
"K+	c #304B53",
"L+	c #1A3942",
"M+	c #203F48",
"N+	c #2D4850",
"O+	c #16353F",
"P+	c #11313C",
"Q+	c #000000",
"R+	c #304D55",
"S+	c #496870",
"T+	c #47656D",
"U+	c #3A555D",
"V+	c #193943",
"W+	c #1A353F",
"X+	c #172F38",
"Y+	c #02242E",
"Z+	c #214049",
"`+	c #264149",
" @	c #1F3B43",
".@	c #243F47",
"+@	c #224049",
"@@	c #0F2A34",
"#@	c #16323C",
"$@	c #26434B",
"%@	c #00222F",
"&@	c #1A3A43",
"*@	c #11323C",
"=@	c #012530",
"-@	c #142F38",
";@	c #233C44",
">@	c #213D44",
",@	c #223E46",
"'@	c #1E3A42",
")@	c #082732",
"!@	c #26414A",
"~@	c #032430",
"{@	c #0A2B36",
"]@	c #1A333C",
"^@	c #203840",
"/@	c #193038",
"(@	c #1C363E",
"_@	c #2A464F",
":@	c #1C3941",
"<@	c #0F2E38",
"[@	c #1F3B42",
"}@	c #162E36",
"|@	c #49666E",
"1@	c #1E373E",
"2@	c #2C424A",
"3@	c #153139",
"4@	c #203C44",
"5@	c #3B555C",
"6@	c #263D45",
"7@	c #243C47",
"8@	c #1E3741",
"9@	c #233D46",
"0@	c #23414A",
"a@	c #2E4B52",
"b@	c #27434A",
"c@	c #1B3840",
"d@	c #072734",
"e@	c #092835",
"f@	c #2C454D",
"g@	c #082A35",
"                                                                                                    ",
"                                                                                                    ",
"                                                                                                    ",
"                                                                                                    ",
"                                                                                                    ",
"                                                                                                    ",
"                                                                                              .     ",
"                                                                                          + @       ",
"                                                                                # $   % & * =       ",
"                                                                          -   ; >   , ' ) ! ~       ",
"                                                                    { ] ^ / ( _ : < [ } | 1         ",
"                                                            2     3 4 5 6 7 8 9 0 a b c d           ",
"                                                          e f   g h i j k l m n o p b |             ",
"                                                      q r s t u v w x y z A B C p |                 ",
"                                                D   E F G H I J K ' L M N l O P                     ",
"                                            Q         H R | S T U V W X O 0 | Y                     ",
"                              Z         `  ...+.    @.#.$.%.&.*.=.-.;.>.0 |                         ",
"                          ,.'.).    !.~.{.].^./.  (._.:.<.[.}.|./.1.b 2.                            ",
"                      3.4.5.6.    7.8...9.k B 0.    7.a.b.c.d.8 e.f.g.h.                            ",
"                  { i.j.k.l.    m.n.o.p.q.r.s.        t.u.v.w.f.| p                                 ",
"  x.            y.z.A.B.C.    7.D.n.E.F.G.D.n.  H.I.J.K.L.| | b                                     ",
"          M.N.  O.P.Q.R.S.    T.U.V.A W.Q /.X.Y.Z.7.`.! b b                                         ",
"         +.+++@+#+$+%+&+*+  =+-+;+>+,+'+)+U !+>+~+{+f.]+                                            ",
"          ^+/+(+_+:+M <+[+}+|+1+).2+3+4+5+/.6+7+9 8+9+                                              ",
"^     0+a+b+c+d+3.e+f+g+h+i+$.j+k+l+b m+n.n+o+0 p+q+                                                ",
"  r+s+t+u+v+w+x+y+z+A+#.B+t B C+| D+n.T E+F+p+b                                                     ",
"G+H+I+E i.^ J+K+L+i+B+M+N+O+b P+n.t E+F+p+b             Q+Q+Q+Q+Q+Q+Q+Q+Q+Q+Q+Q+                    ",
"R+S+T+3 U+6+V+w.$.t !+W+X+Y+U Z+E+F+p+b                 Q+Q+Q+Q+Q+Q+Q+Q+Q+Q+Q+Q+                    ",
"`+ @.@6+A+w.B++@..7+@@#@$@v++ 0 %@b                     Q+Q+Q+Q+                                    ",
"/.H &@w.$.+@N+*@=@-@;@>@] ,@'@)@                        Q+Q+Q+Q+                                    ",
"!@~@B++@b.P++ {@]@^@/@(@^.s.                            Q+Q+Q+Q+                                    ",
"_@+@N+:@L.<@3.[@}@] `+s.                                Q+Q+Q+Q+                                    ",
"|@1@|.-@3.2@3@4@`+s.                                    Q+Q+Q+Q+                                    ",
"5@w+i.6@7@8@9@6+                                        Q+Q+Q+Q+Q+Q+Q+Q+Q+Q+                        ",
"0@a@b@c@d@e@                                            Q+Q+Q+Q+Q+Q+Q+Q+Q+Q+                        ",
"f@|+g@p+                                                Q+Q+Q+Q+        Q+Q+Q+Q+                    ",
"{@f.                                                    Q+Q+Q+Q+        Q+Q+Q+Q+                    ",
"                                                                        Q+Q+Q+Q+                    ",
"                                                                        Q+Q+Q+Q+                    ",
"                                                                        Q+Q+Q+Q+                    ",
"                                                                        Q+Q+Q+Q+                    ",
"                                                        Q+Q+Q+Q+        Q+Q+Q+Q+                    ",
"                                                          Q+Q+Q+        Q+Q+Q+Q+                    ",
"                                                            Q+Q+Q+Q+Q+Q+Q+Q+                        ",
"                                                              Q+Q+Q+Q+Q+Q+Q+                        ",
"                                                                                                    ",
"                                                                                                    ",
"                                                                                                    ",
"                                                                                                    ",
"                                                                                                    "};
