/* XPM */
static char * prop_xpm[] = {
"25 25 6 1",
" 	c None",
".	c #808080",
"+	c #C0C0C0",
"@	c #000000",
"#	c #0000BF",
"$	c #FFFFFF",
"                         ",
"                         ",
"                         ",
"                         ",
"                         ",
"    ................     ",
"    .+++++++++++++.@     ",
"    .+############.@     ",
"    .+######$@$@$@.@     ",
"    .+.............@     ",
"    .+$$$$$$$$$$$$.@     ",
"    .+$$$$$$$$$$$$.@     ",
"    .+$$$$$$$$$$$$.@     ",
"    .+$$$$$$$$$$$$.@     ",
"    .+$$$$$$$$$$$$.@     ",
"    .+$$$$$$$$$$$$.@     ",
"    .+$$$$$$$$$$$$.@     ",
"    ...............@     ",
"    @@@@@@@@@@@@@@@@     ",
"                         ",
"                         ",
"                         ",
"                         ",
"                         ",
"                         "};
