/* XPM */
static const char * x_xpm[] = {
"25 25 3 1",
" 	c None",
".	c #003BEC",
"+	c #D21E02",
"                  ...... ",
".....            ...++.. ",
".......         ...++... ",
".+++....        ..++...  ",
"...+++....     ...+...   ",
".....++....   ...++..    ",
"  ....+++... ...++...    ",
"    ....++.....++...     ",
"     ....++....+...      ",
"       ...++..++..       ",
"        ...++++...       ",
"         ...++...        ",
"         ...++...        ",
"        ...++++...       ",
"       ...++..++..       ",
"      ...++....+...      ",
"     ...++.....++...     ",
"    ...++... ...++..     ",
"  ....++...   ...+...    ",
" ....++...     ..++...   ",
"...+++...      ...++..   ",
"..++....        ...+...  ",
".++....          ..++... ",
".+...            ...++.. ",
"....              ..++.. "};
